<svg width="109" height="137" viewBox="0 0 109 137" fill="none" xmlns="http://www.w3.org/2000/svg">
<path fill-rule="evenodd" clip-rule="evenodd" d="M72.0001 45.2258V105.22L73.1023 106.872L76.2629 111.613L83.855 123.001L91.4472 111.613L94.6075 106.872L95.7097 105.22V45.2258V40.4839V38.1129C95.7097 34.1919 92.5178 31 88.5968 31H79.1129C75.1919 31 72 34.1919 72 38.1129V40.4839L72.0001 45.2258ZM86.2259 102.129H90.9679V64.1936H86.2259V102.129ZM81.484 64.1936H76.7421V102.129H81.484V64.1936ZM83.855 114.45L88.9096 106.871H78.8004L83.855 114.45ZM76.7422 59.4516H90.968V54.7097H76.7422V59.4516ZM88.597 35.7419H79.1131C77.8049 35.7419 76.7422 36.8047 76.7422 38.1129V49.9678H90.968V38.1129C90.968 36.8047 89.9052 35.7419 88.597 35.7419Z" fill="#252023"/>
<path d="M10 63.5645H62.1613V84.9032H10V63.5645Z" fill="url(#paint0_linear_814_86)"/>
<path d="M57.4199 80.1613H62.1619V84.9032H57.4199V80.1613Z" fill="#252023"/>
<path d="M10.0007 80.1613H52.6782V84.9032H10.0007V80.1613Z" fill="#252023"/>
<path d="M10.0007 70.6774H62.162V75.4193H10.0007V70.6774Z" fill="#252023"/>
<path d="M10.0007 61.1936H62.162V65.9355H10.0007V61.1936Z" fill="#252023"/>
<path d="M62 45H10V31H62V45Z" fill="url(#paint1_linear_814_86)"/>
<path d="M53 55H10V41H53V55Z" fill="url(#paint2_linear_814_86)"/>
<path d="M14.7421 35.7419H10.0001V31H14.7421V35.7419Z" fill="#252023"/>
<path d="M62.1613 35.7419H19.4838V31H62.1613V35.7419Z" fill="#252023"/>
<path d="M62.1613 45.2258H9.99997V40.4839H62.1613V45.2258Z" fill="#252023"/>
<path d="M53 55H10V50H53V55Z" fill="#252023"/>
<path d="M106 21H3V4H106V21Z" fill="url(#paint3_linear_814_86)"/>
<path d="M13.8065 18.6129C10.6042 18.6129 8 16.0087 8 12.8065C8 9.60419 10.6042 7 13.8065 7C17.0087 7 19.6129 9.60419 19.6129 12.8065C19.6129 16.0087 17.0087 18.6129 13.8065 18.6129ZM13.8065 9.90323C12.2053 9.90323 10.9032 11.2053 10.9032 12.8065C10.9032 14.4076 12.2053 15.7097 13.8065 15.7097C15.4076 15.7097 16.7097 14.4076 16.7097 12.8065C16.7097 11.2053 15.4076 9.90323 13.8065 9.90323Z" fill="#252023"/>
<path d="M26.8065 18.6129C23.6042 18.6129 21 16.0087 21 12.8065C21 9.60419 23.6042 7 26.8065 7C30.0087 7 32.6129 9.60419 32.6129 12.8065C32.6129 16.0087 30.0087 18.6129 26.8065 18.6129ZM26.8065 9.90323C25.2053 9.90323 23.9032 11.2053 23.9032 12.8065C23.9032 14.4076 25.2053 15.7097 26.8065 15.7097C28.4076 15.7097 29.7097 14.4076 29.7097 12.8065C29.7097 11.2053 28.4076 9.90323 26.8065 9.90323Z" fill="#252023"/>
<path d="M39.8065 18.6129C36.6042 18.6129 34 16.0087 34 12.8065C34 9.60419 36.6042 7 39.8065 7C43.0087 7 45.6129 9.60419 45.6129 12.8065C45.6129 16.0087 43.0087 18.6129 39.8065 18.6129ZM39.8065 9.90323C38.2053 9.90323 36.9032 11.2053 36.9032 12.8065C36.9032 14.4076 38.2053 15.7097 39.8065 15.7097C41.4076 15.7097 42.7097 14.4076 42.7097 12.8065C42.7097 11.2053 41.4076 9.90323 39.8065 9.90323Z" fill="#252023"/>
<path d="M10 118H62V123H10V118Z" fill="#252023"/>
<path d="M15 113L21 107L27 113L33 107" stroke="#252023" stroke-width="4"/>
<path d="M26.5 113L32.5 107L38.5 113L44.5 107" stroke="#252023" stroke-width="4"/>
<path d="M38.5 113L44.5 107L50.5 113L56.5 107" stroke="#252023" stroke-width="4"/>
<rect x="2" y="2" width="105" height="133" stroke="#252023" stroke-width="4"/>
<defs>
<linearGradient id="paint0_linear_814_86" x1="18.9474" y1="45.8861" x2="24.8719" y2="105.068" gradientUnits="userSpaceOnUse">
<stop stop-color="#FFD13D"/>
<stop offset="0.265625" stop-color="#F29100"/>
<stop offset="0.635417" stop-color="#EB501C"/>
<stop offset="1" stop-color="#E5352A"/>
</linearGradient>
<linearGradient id="paint1_linear_814_86" x1="53.0802" y1="56.5985" x2="50.5077" y2="17.5503" gradientUnits="userSpaceOnUse">
<stop stop-color="#FFD13D"/>
<stop offset="0.265625" stop-color="#F29100"/>
<stop offset="0.635417" stop-color="#EB501C"/>
<stop offset="1" stop-color="#E5352A"/>
</linearGradient>
<linearGradient id="paint2_linear_814_86" x1="45.624" y1="66.5985" x2="42.5193" y2="27.6282" gradientUnits="userSpaceOnUse">
<stop stop-color="#FFD13D"/>
<stop offset="0.265625" stop-color="#F29100"/>
<stop offset="0.635417" stop-color="#EB501C"/>
<stop offset="1" stop-color="#E5352A"/>
</linearGradient>
<linearGradient id="paint3_linear_814_86" x1="88.332" y1="35.0839" x2="86.4118" y2="-12.46" gradientUnits="userSpaceOnUse">
<stop stop-color="#FFD13D"/>
<stop offset="0.265625" stop-color="#F29100"/>
<stop offset="0.635417" stop-color="#EB501C"/>
<stop offset="1" stop-color="#E5352A"/>
</linearGradient>
</defs>
</svg>
