<?xml version="1.0" encoding="UTF-8"?>
<svg width="512" height="512" enable-background="new 0 0 64 64" version="1.1" viewBox="0 0 64 64" xmlns="http://www.w3.org/2000/svg" xmlns:cc="http://creativecommons.org/ns#" xmlns:dc="http://purl.org/dc/elements/1.1/" xmlns:rdf="http://www.w3.org/1999/02/22-rdf-syntax-ns#">
 <metadata>
  <rdf:RDF>
   <cc:Work rdf:about="">
    <dc:format>image/svg+xml</dc:format>
    <dc:type rdf:resource="http://purl.org/dc/dcmitype/StillImage"/>
    <dc:title/>
   </cc:Work>
  </rdf:RDF>
 </metadata>
 <path d="m20.707 47.708-1.414-1.414-2.793 2.792-1.586-1.586 2.792-2.792-1.414-1.414-2.792 2.792-1.5-1.5-9.464 9.464c-.991.991-1.536 2.307-1.536 3.707 0 2.891 2.352 5.243 5.243 5.243 1.4 0 2.717-.545 3.707-1.536l9.464-9.464-1.5-1.5zm-12.171 12.342c-.613.613-1.427.95-2.293.95-1.788 0-3.243-1.455-3.243-3.243 0-.866.337-1.68.95-2.293l8.05-8.05 4.586 4.586z"/>
 <path d="m27 43.414-6.414-6.414 4.414-4.414 2 2 6-6 4.414 4.414zm-3.586-6.414 3.586 3.586 7.586-7.586-1.586-1.586-6 6-2-2z"/>
 <path d="m23 9h17v5h-17z" fill="#ea8c0c"/>
 <path d="m58 1h-38c-2.757 0-5 2.243-5 5v21.514h2v-21.514c0-1.654 1.346-3 3-3h38c1.654 0 3 1.346 3 3v26c0 1.654-1.346 3-3 3h-14.035v2h5.035v4h-6.732v2h8.732c1.654 0 3 1.346 3 3v1h-17.515v2h19.515v-3c0-2.757-2.243-5-5-5v-4h7c2.757 0 5-2.243 5-5v-26c0-2.757-2.243-5-5-5z"/>
 <path d="m57 31h-13.3v2h13.3c1.103 0 2-.897 2-2v-24c0-1.103-.897-2-2-2h-36c-1.103 0-2 .897-2 2v15.999h2v-15.999h36z"/>
 <path d="m50.567 17.494c.884-.902 1.433-2.134 1.433-3.494 0-2.757-2.243-5-5-5s-5 2.243-5 5c0 1.36.549 2.592 1.433 3.494-2.592 1.026-4.433 3.553-4.433 6.506v1h16v-1c0-2.953-1.841-5.48-4.433-6.506zm-3.567-6.494c1.654 0 3 1.346 3 3s-1.346 3-3 3-3-1.346-3-3 1.346-3 3-3zm-5.899 12c.464-2.279 2.485-4 4.899-4h2c2.415 0 4.435 1.721 4.899 4z"/>
 <path d="m29 51c-8.822 0-16-7.178-16-16s7.178-16 16-16 16 7.178 16 16-7.178 16-16 16zm0-27c-6.066 0-11 4.934-11 11s4.934 11 11 11 11-4.935 11-11-4.935-11-11-11z" fill="#ea8c0c"/>
 <path d="m29 47c-6.617 0-12-5.383-12-12s5.383-12 12-12 12 5.383 12 12-5.383 12-12 12zm0-22c-5.514 0-10 4.486-10 10s4.486 10 10 10 10-4.486 10-10-4.486-10-10-10z"/>
 <path d="m23 9h2v2h-2z"/>
 <path d="m27 9h13v2h-13z"/>
 <path d="m23 13h17v2h-17z"/>
</svg>
