<svg width="94" height="90" viewBox="0 0 94 90" fill="none" xmlns="http://www.w3.org/2000/svg">
<path fill-rule="evenodd" clip-rule="evenodd" d="M5.338 41.9635C5.338 48.9761 11.0434 54.6824 18.0562 54.6824C25.0686 54.6824 30.7734 48.9755 30.7734 41.9635C30.7734 34.9514 25.0686 29.2441 18.0562 29.2441C11.0434 29.2441 5.338 34.9508 5.338 41.9635ZM66.7458 38.1364C66.1396 38.1364 65.645 38.6306 65.645 39.2368V44.6878C65.645 45.295 66.1381 45.7901 66.7458 45.7901H71.8979V50.9406C71.8979 51.5477 72.391 52.0433 72.9985 52.0433H78.4496C79.0567 52.0433 79.5494 51.5471 79.5494 50.9406V45.7901H84.7016C85.3091 45.7901 85.8022 45.295 85.8022 44.6878V39.2368C85.8022 38.6306 85.3077 38.1364 84.7016 38.1364H79.5494V32.986C79.5494 32.3794 79.0567 31.8836 78.4496 31.8836H72.9985C72.391 31.8836 71.8979 32.3788 71.8979 32.986V38.1364H66.7458ZM40.4962 16.3191H53.2834V26.8204H49.7891V21.6944C49.7891 21.3812 49.5358 21.1271 49.2225 21.1271H44.5572C44.2435 21.1271 43.9905 21.3809 43.9905 21.6944V26.8204H40.4962V16.3191ZM34.0338 41.9635C34.0338 50.774 26.8665 57.9405 18.0562 57.9405C9.24525 57.9405 2.07947 50.7744 2.07947 41.9635C2.07947 33.1527 9.24543 25.9866 18.0562 25.9866C26.8663 25.9866 34.0338 33.1531 34.0338 41.9635ZM75.7244 25.9866C84.5342 25.9866 91.7021 33.1533 91.7021 41.9635C91.7021 50.7736 84.5344 57.9405 75.7244 57.9405C66.9135 57.9405 59.7477 50.7744 59.7477 41.9635C59.7477 33.1527 66.9137 25.9866 75.7244 25.9866ZM55.779 62.3384C55.779 67.2406 51.7935 71.2286 46.8908 71.2286C41.988 71.2286 37.9999 67.2413 37.9999 62.3384C37.9999 57.4353 41.988 53.4498 46.8908 53.4498C51.7933 53.4498 55.779 57.4359 55.779 62.3384Z" fill="url(#paint0_linear_2044_47)"/>
<path fill-rule="evenodd" clip-rule="evenodd" d="M46.8908 10.5691L52.1469 14.2393H41.632L46.8908 10.5691ZM52.3382 25.875H50.7345V21.6943C50.7345 20.859 50.0572 20.1817 49.2224 20.1817H44.5572C43.7215 20.1817 43.0451 20.859 43.0451 21.6943V25.875H41.4414V17.2645H52.338V25.875H52.3382ZM47.7094 25.875V23.2071H46.0702V25.875H47.7094ZM38.4156 17.2645V27.3878C38.4156 28.2235 39.0929 28.9004 39.9286 28.9004H53.8503C54.686 28.9004 55.3632 28.2237 55.3632 27.3878V17.2645H56.9588C57.621 17.2645 58.2048 16.8355 58.4032 16.2038C58.5998 15.5742 58.3676 14.888 57.8248 14.5099L47.7548 7.48569C47.2341 7.12248 46.5446 7.12248 46.0248 7.48569L35.9541 14.5097C35.4122 14.8878 35.1788 15.5742 35.3774 16.2036C35.574 16.8353 36.1588 17.2643 36.82 17.2643L38.4156 17.2645ZM18.0562 52.6027C12.1895 52.6027 7.41763 47.8307 7.41763 41.9634C7.41763 36.0962 12.1897 31.324 18.0562 31.324C23.9218 31.324 28.6937 36.0964 28.6937 41.9634C28.6937 47.8307 23.9218 52.6027 18.0562 52.6027ZM18.0562 28.2988C10.5217 28.2988 4.3926 34.4286 4.3926 41.9634C4.3926 49.4983 10.5217 55.6278 18.0562 55.6278C25.5897 55.6278 31.7188 49.4981 31.7188 41.9634C31.7188 34.4288 25.5897 28.2988 18.0562 28.2988ZM23.192 44.4481C22.9267 42.2697 21.2858 40.9179 18.3114 40.43C16.3339 40.105 16.3019 39.4315 16.2904 39.2105C16.2467 38.3011 17.2265 38.008 17.5273 37.9397C18.2055 37.7847 19.4969 37.8529 20.0155 39.0872C20.3387 39.8587 21.2251 40.2198 21.9948 39.8967C22.7664 39.5733 23.1277 38.6864 22.8038 37.9172C22.1364 36.325 20.8985 35.425 19.5689 35.0565V34.754C19.5689 33.9183 18.8907 33.2414 18.056 33.2414C17.2203 33.2414 16.5439 33.9183 16.5439 34.754V35.0697C14.4756 35.6653 13.1727 37.3536 13.2689 39.3561C13.3295 40.6038 14.0024 42.7876 17.8219 43.4155C20.0647 43.7822 20.1509 44.5046 20.1891 44.8126C20.2273 45.1248 20.1401 45.2761 20.0379 45.3914C19.7202 45.7599 18.9512 46.0303 18.1681 46.049C17.2683 46.0738 16.1319 45.7202 15.8684 44.6612C15.6664 43.8519 14.8439 43.3586 14.0351 43.5608C13.2234 43.761 12.7305 44.5835 12.9324 45.3929C13.3693 47.1419 14.7381 48.4219 16.5437 48.8851V49.1723C16.5437 50.008 17.2201 50.6849 18.0558 50.6849C18.8905 50.6849 19.5688 50.008 19.5688 49.1723V48.9116C20.6972 48.656 21.6805 48.1156 22.3276 47.3704C23.0275 46.5618 23.3264 45.55 23.192 44.4481ZM83.7225 43.7103H78.9826C78.1487 43.7103 77.4696 44.3872 77.4696 45.2229V49.9634H73.9773V45.2229C73.9773 44.3872 73.3001 43.7103 72.4644 43.7103H67.7244V40.2162H72.4644C73.3001 40.2162 73.9773 39.5393 73.9773 38.7036V33.9637H77.4696V38.7036C77.4696 39.5393 78.1485 40.2162 78.9826 40.2162H83.7225V43.7103ZM84.7015 37.191H80.4948V32.9859C80.4948 31.8572 79.5781 30.9384 78.4497 30.9384H72.9987C71.8693 30.9384 70.9527 31.8574 70.9527 32.9859V37.191H66.746C65.6166 37.191 64.7 38.1101 64.7 39.2368V44.6878C64.7 45.8166 65.6166 46.7353 66.746 46.7353H70.9527V50.9404C70.9527 52.0692 71.8693 52.9883 72.9987 52.9883H78.4497C79.5781 52.9883 80.4948 52.0692 80.4948 50.9404V46.7353H84.7015C85.8309 46.7353 86.7475 45.8166 86.7475 44.6878V39.2368C86.7475 38.1103 85.8307 37.191 84.7015 37.191ZM36.512 54.6013C37.2366 55.0191 37.4839 55.9439 37.0664 56.668C36.7862 57.1519 36.2779 57.4242 35.7536 57.4242C35.4982 57.4242 35.2375 57.3582 34.9998 57.2201L32.7608 55.9286C32.0364 55.5107 31.7889 54.5842 32.2064 53.8622C32.6246 53.1378 33.5494 52.8903 34.2737 53.308L36.512 54.6013ZM57.2668 54.6013L59.5078 53.308C60.2295 52.8901 61.1559 53.1376 61.5725 53.8622C61.9898 54.5842 61.7425 55.5107 61.0208 55.9286L58.7798 57.2201C58.5414 57.3582 58.2824 57.4242 58.0252 57.4242C57.5019 57.4242 56.9955 57.1519 56.7134 56.666C56.295 55.9439 56.5433 55.0191 57.2668 54.6013ZM46.8908 38.5355C47.7248 38.5355 48.4028 39.2124 48.4028 40.0481V47.443C48.4028 48.2788 47.7246 48.9558 46.8908 48.9558C46.055 48.9558 45.3778 48.2789 45.3778 47.443V40.0481C45.3778 39.2122 46.055 38.5355 46.8908 38.5355ZM18.0562 56.9952C26.3443 56.9952 33.0884 50.2527 33.0884 41.9634C33.0884 33.6744 26.3443 26.9319 18.0562 26.9319C9.76708 26.9319 3.02483 33.6744 3.02483 41.9634C3.02483 50.2525 9.76708 56.9952 18.0562 56.9952ZM36.1134 41.9634C36.1134 51.9202 28.0114 60.0202 18.0563 60.0202C8.10038 60.0202 0 51.9202 0 41.9634C0 32.0067 8.10038 23.9067 18.0563 23.9067C28.0112 23.9067 36.1134 32.0067 36.1134 41.9634ZM46.8908 3.02521C38.6017 3.02521 31.8594 9.76973 31.8594 18.0567C31.8594 26.3458 38.6017 33.0882 46.8908 33.0882C55.1779 33.0882 61.9221 26.3458 61.9221 18.0565C61.9221 9.76973 55.1779 3.02521 46.8908 3.02521ZM46.8908 36.1134C56.8458 36.1134 64.9471 28.0134 64.9471 18.0567C64.9471 8.1 56.846 0 46.8908 0C36.9338 0 28.8335 8.1 28.8335 18.0567C28.8335 28.0134 36.9338 36.1134 46.8908 36.1134ZM75.7244 56.9952C84.0116 56.9952 90.7567 50.2527 90.7567 41.9634C90.7567 33.6744 84.0118 26.9319 75.7244 26.9319C67.4353 26.9319 60.6931 33.6744 60.6931 41.9634C60.6931 50.2525 67.4353 56.9952 75.7244 56.9952ZM75.7244 23.9067C85.6794 23.9067 93.7817 32.0067 93.7817 41.9634C93.7817 51.9202 85.6794 60.0202 75.7244 60.0202C65.7675 60.0202 57.6681 51.9202 57.6681 41.9634C57.6681 32.0067 65.7677 23.9067 75.7244 23.9067ZM30.0591 86.9748C31.693 79.075 38.6525 73.3084 46.8908 73.3084C55.1265 73.3084 62.0868 79.075 63.7208 86.9748H30.0591ZM38.9452 62.3384C38.9452 57.9574 42.5095 54.3952 46.8908 54.3952C51.2711 54.3952 54.8336 57.9574 54.8336 62.3384C54.8336 66.7193 51.2711 70.2834 46.8908 70.2834C42.5095 70.2832 38.9452 66.7193 38.9452 62.3384ZM53.2193 71.2889C56.0254 69.3 57.8587 66.0309 57.8587 62.3382C57.8587 56.2897 52.9389 51.3698 46.8908 51.3698C40.8426 51.3698 35.9202 56.2897 35.9202 62.3382C35.9202 66.0309 37.7561 69.3 40.5605 71.2889C33.1926 73.7036 27.6561 80.2322 26.7901 88.3267C26.7447 88.754 26.8809 89.1794 27.1683 89.499C27.4549 89.8185 27.8633 90 28.2933 90H65.4863C65.9154 90 66.3238 89.8185 66.6112 89.499C66.8987 89.1794 67.0366 88.754 66.9893 88.3267C66.1235 80.2324 60.5872 73.7038 53.2193 71.2889Z" fill="#252023"/>
<defs>
<linearGradient id="paint0_linear_2044_47" x1="17.4528" y1="-29.1715" x2="40.0063" y2="121.263" gradientUnits="userSpaceOnUse">
<stop stop-color="#FFD13D"/>
<stop offset="0.265625" stop-color="#F29100"/>
<stop offset="0.635417" stop-color="#EB501C"/>
<stop offset="1" stop-color="#E5352A"/>
</linearGradient>
</defs>
</svg>
