<?xml version="1.0" encoding="UTF-8"?>
<svg width="512" height="512" enable-background="new 0 0 64 64" version="1.1" viewBox="0 0 64 64" xmlns="http://www.w3.org/2000/svg" xmlns:cc="http://creativecommons.org/ns#" xmlns:dc="http://purl.org/dc/elements/1.1/" xmlns:rdf="http://www.w3.org/1999/02/22-rdf-syntax-ns#">
 <metadata>
  <rdf:RDF>
   <cc:Work rdf:about="">
    <dc:format>image/svg+xml</dc:format>
    <dc:type rdf:resource="http://purl.org/dc/dcmitype/StillImage"/>
    <dc:title/>
   </cc:Work>
  </rdf:RDF>
 </metadata>
 <g fill="#ea8c0c">
  <path d="m61 41.672v-34.672h-8v28.72c3.794 1.613 6.601 3.658 8 5.952z"/>
  <path d="m21 32.905v-15.905h-8v17.943c2.388-.848 5.081-1.539 8-2.038z"/>
  <path d="m11 35.72v-12.72h-8v18.672c1.399-2.294 4.206-4.339 8-5.952z"/>
  <path d="m51 34.943v-21.943h-8v19.905c2.919.499 5.612 1.19 8 2.038z"/>
  <path d="m33.342 12.082.658 5.918-2 3-2-3 .658-5.919z"/>
  <path d="m36.101 35.2h-.101v5.216c3.532.772 6 2.534 6 4.584 0 2.761-4.477 5-10 5s-10-2.239-10-5c0-2.05 2.468-3.812 6-4.584v-5.221l-.101.005c-9.05.912-14.899 4.759-14.899 9.8 0 5.888 7.813 10 19 10s19-4.112 19-10c0-5.041-5.849-8.888-14.899-9.8z"/>
 </g>
 <path d="m8.45 49.589 1.1-1.671c-1.88-1.238-2.55-2.319-2.55-2.918 0-.283.158-1.068 1.627-2.249l-1.254-1.559c-1.553 1.249-2.373 2.565-2.373 3.808 0 1.516 1.193 3.103 3.45 4.589z"/>
 <path d="m13.373 49.86c-.684-.275-1.332-.564-1.927-.861l-.893 1.789c.643.321 1.34.633 2.073.928z"/>
 <path d="m57 45h2c0-.625-.204-1.269-.606-1.912l-1.695 1.062c.197.315.301.609.301.85z"/>
 <path d="m56.854 41.38c-.502-.424-1.089-.845-1.747-1.25l-1.049 1.703c.572.353 1.078.714 1.503 1.074z"/>
 <path d="m53.268 39.123c-.595-.291-1.231-.573-1.895-.839l-.746 1.855c.618.249 1.211.511 1.762.78z"/>
 <path d="m37 31.18v-.18c2.206 0 4-1.794 4-4v-7c0-3.672-2.213-6.833-5.374-8.231 1.439-1.097 2.374-2.824 2.374-4.769 0-3.309-2.691-6-6-6s-6 2.691-6 6c0 1.945.935 3.672 2.374 4.769-3.161 1.398-5.374 4.559-5.374 8.231v7c0 2.206 1.794 4 4 4v.18c-15.121 1.078-26 6.821-26 13.82v4c0 7.851 13.617 14 31 14s31-6.149 31-14v-4c0-6.999-10.879-12.742-26-13.82zm-7 15.82c.771 0 1.468-.301 2-.78.532.48 1.229.78 2 .78 1.654 0 3-1.346 3-3v-2.281c2.404.758 4 2.029 4 3.281 0 1.892-3.696 4-9 4s-9-2.108-9-4c0-1.252 1.596-2.523 4-3.281v2.281c0 1.654 1.346 3 3 3zm-2-40c0-2.206 1.794-4 4-4s4 1.794 4 4-1.794 4-4 4-4-1.794-4-4zm-3 20v-7c0-3.86 3.141-7 7-7s7 3.14 7 7v7c0 1.103-.897 2-2 2v-9h-2v24c0 .551-.448 1-1 1s-1-.449-1-1v-15h-2v15c0 .551-.448 1-1 1s-1-.449-1-1v-24h-2v9c-1.103 0-2-.897-2-2zm2 6.185v6.445c-3.722.999-6 3.016-6 5.37 0 3.364 4.832 6 11 6s11-2.636 11-6c0-2.354-2.278-4.371-6-5.37v-6.445c13.541 1.005 24 6.108 24 11.815 0 6.505-13.28 12-29 12s-29-5.495-29-12c0-5.707 10.459-10.81 24-11.815zm5 27.815c-14.73 0-27.317-4.825-28.844-10.784 4.492 5.193 15.565 8.784 28.844 8.784s24.352-3.591 28.844-8.784c-1.527 5.959-14.114 10.784-28.844 10.784z"/>
</svg>
