<?xml version="1.0"?>
<svg xmlns="http://www.w3.org/2000/svg" height="512px" viewBox="0 0 60 60" width="512px" class=""><g><g id="Page-1" fill="none" fill-rule="evenodd"><g id="041---message-not-sent" fill-rule="nonzero"><g id="color" transform="translate(1 1)"><path id="Shape" d="m58 4v38c.0003336.228003-.0197466.4555782-.06.68-.5678622-6.0413216-4.9628959-11.0290927-10.8847283-12.3526998-5.9218323-1.3236072-12.0222001 1.318304-15.1081537 6.5429499s-2.4548934 11.8424963 1.562882 16.3897499l-3 4c-.3799598.4585406-.9444927.7239122-1.54.7239122s-1.1600402-.2653716-1.54-.7239122l-7.23-9.82c-.7591875-.9114707-1.8837693-1.4389618-3.07-1.44h-13.13c-2.209139 0-4-1.790861-4-4v-38c0-2.209139 1.790861-4 4-4h50c2.209139 0 4 1.790861 4 4z" fill="#00bcd4" data-original="#00BCD4" class="" style="fill:#EA8C0C" data-old_color="#00bcd4"/><path id="Shape" d="m42.49 30.08c-.4949948-.0518389-.9923003-.0785399-1.49-.08-5.5013128.0039732-10.4903952 3.2294891-12.7520632 8.2443984-2.2616681 5.0149093-1.3766646 10.8895723 2.2620632 15.0156016l-3 4c.3796661.4305009.9259988.6771243 1.5.6771243s1.1203339-.2466234 1.5-.6771243l3-4c-3.4608981-3.9239734-4.4449133-9.4503187-2.5511808-14.327732 1.8937325-4.8774132 6.3491351-8.2918189 11.5511808-8.852268z" fill="#00838f" data-original="#00838F" class="" style="fill:#EA8C0C" data-old_color="#00838f"/><path id="Shape" d="m54 0h-3c2.209139 0 4 1.790861 4 4v31.36c1.6663229 2.1048893 2.6874488 4.6472843 2.94 7.32.0402534-.2244218.0603336-.451997.06-.68v-38c0-2.209139-1.790861-4-4-4z" fill="#00838f" data-original="#00838F" class="" style="fill:#EA8C0C" data-old_color="#00838f"/><path id="Shape" d="m58 44c-.0135778 7.6032336-6.0931035 13.8057866-13.6945395 13.9716667-7.6014359.1658801-13.9457521-5.7655572-14.2909977-13.3609605-.3452456-7.5954032 5.4347987-14.0779479 13.0199374-14.6023666 7.5851388-.5244187 14.2023001 5.1010122 14.9055998 12.6716604.06.44.06.88.06 1.32z" fill="#e91e63" data-original="#E91E63" class="" style="fill:#EA8C0C" data-old_color="#e91e63"/><path id="Shape" d="m57.94 42.69c-.6760561-7.1933286-6.7149722-12.6907349-13.94-12.69-.504353.0014489-1.0083173.028149-1.51.08 6.6172388.7071139 11.8221824 5.9747676 12.45 12.6 0 .43.06.87.06 1.31.0048653 7.1588704-5.3917876 13.1680931-12.51 13.93.5016827.051851 1.005647.0785511 1.51.08 3.7130309 0 7.2739856-1.4749958 9.8994949-4.1005051s4.1005051-6.186464 4.1005051-9.8994949c0-.44 0-.88-.06-1.31z" fill="#ad1457" data-original="#AD1457" class="" style="fill:#EA8C0C" data-old_color="#ad1457"/><g fill="#f5f5f5"><rect id="Rectangle-path" height="10" rx="1" width="4" x="42" y="35" data-original="#F5F5F5" class="active-path" style="fill:#FFFFFF" data-old_color="#F5F5F5"/><rect id="Rectangle-path" height="4" rx="1" width="4" x="42" y="49" data-original="#F5F5F5" class="active-path" style="fill:#FFFFFF" data-old_color="#F5F5F5"/><path id="Shape" d="m10 8h-3c-.55228475 0-1-.44771525-1-1s.44771525-1 1-1h3c.5522847 0 1 .44771525 1 1s-.4477153 1-1 1z" data-original="#F5F5F5" class="active-path" style="fill:#FFFFFF" data-old_color="#F5F5F5"/><path id="Shape" d="m35 8h-20c-.5522847 0-1-.44771525-1-1s.4477153-1 1-1h20c.5522847 0 1 .44771525 1 1s-.4477153 1-1 1z" data-original="#F5F5F5" class="active-path" style="fill:#FFFFFF" data-old_color="#F5F5F5"/><path id="Shape" d="m51 8h-11c-.5522847 0-1-.44771525-1-1s.4477153-1 1-1h11c.5522847 0 1 .44771525 1 1s-.4477153 1-1 1z" data-original="#F5F5F5" class="active-path" style="fill:#FFFFFF" data-old_color="#F5F5F5"/><path id="Shape" d="m51 14h-3c-.5522847 0-1-.4477153-1-1s.4477153-1 1-1h3c.5522847 0 1 .4477153 1 1s-.4477153 1-1 1z" data-original="#F5F5F5" class="active-path" style="fill:#FFFFFF" data-old_color="#F5F5F5"/><path id="Shape" d="m43 14h-20c-.5522847 0-1-.4477153-1-1s.4477153-1 1-1h20c.5522847 0 1 .4477153 1 1s-.4477153 1-1 1z" data-original="#F5F5F5" class="active-path" style="fill:#FFFFFF" data-old_color="#F5F5F5"/><path id="Shape" d="m18 14h-11c-.55228475 0-1-.4477153-1-1s.44771525-1 1-1h11c.5522847 0 1 .4477153 1 1s-.4477153 1-1 1z" data-original="#F5F5F5" class="active-path" style="fill:#FFFFFF" data-old_color="#F5F5F5"/><path id="Shape" d="m10 20h-3c-.55228475 0-1-.4477153-1-1s.44771525-1 1-1h3c.5522847 0 1 .4477153 1 1s-.4477153 1-1 1z" data-original="#F5F5F5" class="active-path" style="fill:#FFFFFF" data-old_color="#F5F5F5"/><path id="Shape" d="m35 20h-20c-.5522847 0-1-.4477153-1-1s.4477153-1 1-1h20c.5522847 0 1 .4477153 1 1s-.4477153 1-1 1z" data-original="#F5F5F5" class="active-path" style="fill:#FFFFFF" data-old_color="#F5F5F5"/><path id="Shape" d="m10 32h-3c-.55228475 0-1-.4477153-1-1s.44771525-1 1-1h3c.5522847 0 1 .4477153 1 1s-.4477153 1-1 1z" data-original="#F5F5F5" class="active-path" style="fill:#FFFFFF" data-old_color="#F5F5F5"/><path id="Shape" d="m30 32h-15c-.5522847 0-1-.4477153-1-1s.4477153-1 1-1h15c.5522847 0 1 .4477153 1 1s-.4477153 1-1 1z" data-original="#F5F5F5" class="active-path" style="fill:#FFFFFF" data-old_color="#F5F5F5"/><path id="Shape" d="m51 20h-11c-.5522847 0-1-.4477153-1-1s.4477153-1 1-1h11c.5522847 0 1 .4477153 1 1s-.4477153 1-1 1z" data-original="#F5F5F5" class="active-path" style="fill:#FFFFFF" data-old_color="#F5F5F5"/><path id="Shape" d="m51 26h-3c-.5522847 0-1-.4477153-1-1s.4477153-1 1-1h3c.5522847 0 1 .4477153 1 1s-.4477153 1-1 1z" data-original="#F5F5F5" class="active-path" style="fill:#FFFFFF" data-old_color="#F5F5F5"/><path id="Shape" d="m43 26h-20c-.5522847 0-1-.4477153-1-1s.4477153-1 1-1h20c.5522847 0 1 .4477153 1 1s-.4477153 1-1 1z" data-original="#F5F5F5" class="active-path" style="fill:#FFFFFF" data-old_color="#F5F5F5"/><path id="Shape" d="m18 26h-11c-.55228475 0-1-.4477153-1-1s.44771525-1 1-1h11c.5522847 0 1 .4477153 1 1s-.4477153 1-1 1z" data-original="#F5F5F5" class="active-path" style="fill:#FFFFFF" data-old_color="#F5F5F5"/></g></g><g id="Icons" fill="#000"><path id="Shape" d="m55 0h-50c-2.76142375 0-5 2.23857625-5 5v38c0 1.3260824.5267842 2.597852 1.46446609 3.5355339.9376819.9376819 2.20945146 1.4644661 3.53553391 1.4644661h13.13c.8654952-.0097409 1.6930215.3548081 2.27 1l7.29 9.89c.5772108.6926187 1.4353197 1.0889114 2.3368733 1.0792173s1.7509427-.4243471 2.3131267-1.1292173l2.28-3.07c4.3303934 4.1511366 10.7175503 5.3231286 16.2396187 2.9798395 5.5220683-2.343289 9.1170449-7.7511982 9.1403813-13.7498395 0-.43 0-.85-.06-1.26.0352565-.2451916.0552948-.4923313.06-.74v-38c0-2.76142375-2.2385763-5-5-5zm-10 58c-7.1797017 0-13-5.8202983-13-13s5.8202983-13 13-13 13 5.8202983 13 13c0 3.4478144-1.3696389 6.7544152-3.8076118 9.1923882-2.437973 2.4379729-5.7445738 3.8076118-9.1923882 3.8076118zm0-28c-5.7426823.0102998-10.9754527 3.298409-13.4761885 8.468015-2.5007357 5.1696061-1.830461 11.3132435 1.7261885 15.821985l-2.48 3.35c-.4197059.4103291-1.0902941.4103291-1.51 0l-7.26-9.84c-.9562485-1.1481062-2.3758485-1.8083853-3.87-1.8h-13.13c-1.65685425 0-3-1.3431458-3-3v-38c0-1.65685425 1.34314575-3 3-3h50c1.6568542 0 3 1.34314575 3 3v32.55c-2.6684672-4.6632445-7.6272428-7.5431488-13-7.55z" data-original="#000" class="" data-old_color="#000" style="fill:#000000"/><path id="Shape" d="m46 35h-2c-1.1045695 0-2 .8954305-2 2v8c0 1.1045695.8954305 2 2 2h2c1.1045695 0 2-.8954305 2-2v-8c0-1.1045695-.8954305-2-2-2zm-2 10v-8h2v8z" data-original="#000" class="" data-old_color="#000" style="fill:#000000"/><path id="Shape" d="m46 49h-2c-1.1045695 0-2 .8954305-2 2v2c0 1.1045695.8954305 2 2 2h2c1.1045695 0 2-.8954305 2-2v-2c0-1.1045695-.8954305-2-2-2zm-2 4v-2h2v2z" data-original="#000" class="" data-old_color="#000" style="fill:#000000"/></g></g></g></g> </svg>
