<?xml version="1.0" encoding="UTF-8"?>
<svg width="496pt" height="496pt" version="1.1" viewBox="0 0 496 496" xmlns="http://www.w3.org/2000/svg" xmlns:cc="http://creativecommons.org/ns#" xmlns:dc="http://purl.org/dc/elements/1.1/" xmlns:rdf="http://www.w3.org/1999/02/22-rdf-syntax-ns#">
 <metadata>
  <rdf:RDF>
   <cc:Work rdf:about="">
    <dc:format>image/svg+xml</dc:format>
    <dc:type rdf:resource="http://purl.org/dc/dcmitype/StillImage"/>
    <dc:title/>
   </cc:Work>
  </rdf:RDF>
 </metadata>
 <g fill="#f0bc5e">
  <g fill="#ea8c0c">
   <path d="m166.81 161.16 57.191-17.16v-22.473c-14.336-8.3047-24-23.766-24-41.527v-17.953c-82.809 21.312-144 96.488-144 185.95 0 19.07 2.8242 37.48 8 54.871v-17.613c0-24.992 20.266-45.258 45.258-45.258 12 0 23.512 4.7695 32 13.258l2.7422 2.7422v-64.191c0-14.129 9.2734-26.594 22.809-30.648z"/>
   <path d="m335.96 313.37 0.015624-24.246c0-0.37891 0.046876-0.74609 0.054688-1.1211h-0.023438 0.023438c0.28906-12.336 5.1445-23.52 12.906-32h-204.94c9.8086 4.9023 16 14.93 16 25.887v20.168c0 21.738 8.6328 42.578 24 57.945-10.246 10.246-24.137 16-38.625 16h-9.375l57.191 17.16c13.535 4.0547 22.809 16.52 22.809 30.648v13.52c10.406 1.7422 21.098 2.6719 32 2.6719 10.91 0 21.586-1 32-2.7539v-13.438c0-14.129 9.2734-26.594 22.809-30.648l57.191-17.16v-21.832c-14.344-7.9609-24.055-23.238-24.039-40.801z"/>
   <path d="m296 62.047v17.953c0 17.762-9.6641 33.223-24 41.527v22.473l57.191 17.16c13.535 4.0547 22.809 16.52 22.809 30.648v61.121c8.7344-8.0078 20.336-12.93 33.121-12.93 9.7031 0 19.191 2.8711 27.262 8.2578 7.7148 5.1406 16.074 9.2305 24.863 12.156l2.2578 0.75391c0.28906-4.3594 0.49609-8.7344 0.49609-13.168 0-89.465-61.191-164.64-144-185.95z"/>
  </g>
  <path d="m408 354.03125c.214844-.320312.449219-.625.664062-.941406-.214843.125-.449218.214844-.664062.34375zm0 0"/>
  <g fill="#ea8c0c">
   <path d="m408 376s-8 16-24 16-24-16-24-16l16 40-16 72h48l-16-72z"/>
   <path d="m136 376s-8 16-24 16-24-16-24-16l16 40-16 72h48l-16-72z"/>
   <path d="m272 144s-8 16-24 16-24-16-24-16l16 40-16 72h48l-16-72z"/>
  </g>
 </g>
 <path d="m467.5 385.5-51.496-15.449v-12.23c14.488-10.145 24-26.879 24-45.816v-28.145c5.6562-4.1914 10.633-9.3828 14.656-15.422l5.8086-8.7148-20.688-6.8945c-8.1211-2.7109-15.84-6.4883-22.953-11.223-9.4258-6.2812-20.383-9.6016-31.703-9.6016-9.0156 0-17.52 2.1602-25.121 5.8945v-46.078c0-17.809-11.457-33.199-28.504-38.32l-51.496-15.449v-12.16c14.488-10.133 24-26.91 24-45.887v-30.113c0-13.621-7.3281-25.91-19.207-32.414l-1.8828-1.8711c-10.055-10.066-23.422-15.602-37.652-15.602-29.371 0-53.258 23.887-53.258 53.258v26.742c0 18.977 9.5117 35.762 24 45.887v12.16l-51.496 15.449c-17.047 5.1133-28.504 20.512-28.504 38.32v47.43c-8.0391-4.6953-17.184-7.2461-26.742-7.2461-29.371 0-53.258 23.887-53.258 53.258v18.742c0 19.031-7.2891 35.977-21.656 50.344l-5.6641 5.6562 5.6641 5.6562c5.3516 5.3516 11.535 9.5508 18.215 12.617l-24.055 7.2148c-17.047 5.1211-28.504 20.52-28.504 38.328v72.184h224v-72.184c0-17.809-11.457-33.199-28.504-38.32l-24.055-7.2148c6.6797-3.0664 12.863-7.2656 18.223-12.625l5.6562-5.6562-5.6641-5.6562c-13.969-13.969-21.656-32.527-21.656-52.281v-20.176c0-6.4219-1.6797-12.527-4.6484-17.887h170.53c-3.7422 7.5938-5.9023 16.098-5.9102 25.113l-0.015625 24.246c-0.007813 14.594 5.6641 28.312 15.984 38.633 2.4961 2.4961 5.1992 4.7109 8.0625 6.6484v11.398l-51.496 15.449c-17.047 5.1211-28.504 20.52-28.504 38.328v72.184h224v-72.184c0-17.809-11.457-33.207-28.504-38.32zm-59.551-130.59c8.168 5.4492 17.016 9.8008 26.328 12.938-8.3789 7.7383-19.434 12.152-31.113 12.152h-2.4062c-4.9375 0-9.8164-0.79297-14.516-2.3516l-18.848-6.2891-4.6484 2.3281c-5.5195 2.7617-11.477 4.6484-17.566 5.6016 4.4258-17.945 20.656-31.289 39.945-31.289 8.1445 0 16.039 2.3906 22.824 6.9102zm-162.69-238.91c9.957 0 19.309 3.8711 26.344 10.922l3.6641 3.6523 1.1602 0.57812c6.5586 3.2812 10.664 9.6484 11.309 16.84h-20.422c-5.1602 0-10.008-2.0078-13.656-5.6562l-5.6562-5.6562-5.6641 5.6641c-3.6406 3.6484-8.4883 5.6562-13.648 5.6562h-20.152c2.5781-18.039 17.977-32 36.723-32zm-37.258 64v-16h20.688c6.9688 0 13.625-2 19.312-5.7344 5.6875 3.7344 12.344 5.7344 19.312 5.7344h20.688v16c0 22.055-17.945 40-40 40s-40-17.945-40-40zm40 56c5.5586 0 10.93-0.83984 16-2.3594v8.1523c-1.9844 3.0703-7.4961 10.207-16 10.207s-14.016-7.1445-16-10.199v-8.1523c5.0703 1.5117 10.441 2.3516 16 2.3516zm-78.895 32.824 51.512-15.457c4.6562 6.0469 13.664 14.633 27.383 14.633s22.727-8.5859 27.383-14.633l51.512 15.457c10.234 3.0625 17.105 12.312 17.105 22.992v56.184h-32v-56h-16v56h-96v-56h-16v56h-32v-56.184c0-10.68 6.8711-19.93 17.105-22.992zm-59.848 79.176c9.957 0 19.309 3.8711 26.344 10.922l3.6641 3.6523 1.1602 0.57812c7.1328 3.5742 11.574 10.75 11.574 18.734v6.1133h-6.7031c-15.922 0-31.656-2.5508-46.77-7.5859l-3.1445-1.0547-4.6484 2.3281c-5.8711 2.9375-12.238 4.832-18.734 5.7109v-2.1406c0-20.547 16.711-37.258 37.258-37.258zm18.742 125.8c-1.9844 3.0625-7.4961 10.199-16 10.199s-14.016-7.1445-16-10.199v-8.1523c5.0703 1.5117 10.441 2.3516 16 2.3516s10.93-0.83984 16-2.3594zm-16-21.801c-22.055 0-40-17.945-40-40v-8.4492c8.5195-0.91016 16.895-3.2539 24.641-6.9336 15.766 4.8945 32.121 7.3828 48.656 7.3828h6.7031v8c0 22.055-17.945 40-40 40zm-48.215-11.664c4.0938 6.9453 9.6211 12.945 16.215 17.551v10.113h-1.3672c-9.8711 0-19.273-3.0469-27.137-8.6953 4.9844-5.9453 9.0898-12.297 12.289-18.969zm144.21 83.48v56.184h-32v-56h-16v56h-96v-56h-16v56h-32v-56.184c0-10.68 6.8711-19.922 17.105-22.992l51.512-15.457c4.6562 6.0469 13.664 14.633 27.383 14.633s22.727-8.5859 27.383-14.633l51.512 15.457c10.234 3.0625 17.105 12.312 17.105 22.992zm-35.465-64.535c-7.8711 5.6641-17.277 8.7188-27.168 8.7188h-1.3672v-10.113c6.6797-4.6719 12.273-10.766 16.391-17.832 3.1953 6.8477 7.25 13.305 12.145 19.227zm171.43-63.715c8.5117-0.90234 16.887-3.2539 24.625-6.9336l12.582 4.1914c6.3359 2.1055 12.922 3.1758 19.566 3.1758h2.4102c7.2148 0 14.246-1.2461 20.84-3.6016v19.602c0 22.055-18.047 40-40.23 40h-1.2031c-10.32 0-20.016-4.0156-27.301-11.312-7.2969-7.2969-11.312-17-11.305-27.312zm38.59 72.434h1.2109c5.6367 0 11.086-0.85547 16.23-2.3984v8.1992c-1.9844 3.0625-7.4961 10.199-16 10.199s-14.016-7.1445-16-10.199v-7.8008c4.6875 1.2891 9.5664 2 14.559 2zm97.441 112h-32v-56h-16v56h-96v-56h-16v56h-32v-56.184c0-10.68 6.8711-19.922 17.105-22.992l51.512-15.457c4.6562 6.0469 13.664 14.633 27.383 14.633s22.727-8.5859 27.383-14.633l51.512 15.457c10.234 3.0625 17.105 12.312 17.105 22.992z"/>
 <path d="m161.06 113.44 13.848-8 7.9961 13.848-13.848 8z"/>
 <path d="m129.22 140.52 11.32-11.309 11.309 11.32-11.316 11.309z"/>
 <path d="m105.43 174.93 8-13.855 13.855 8-8 13.855z"/>
 <path d="m91.375 214.31 4.1406-15.453 15.453 4.1406-4.1406 15.453z"/>
 <path d="m240 392h16v16h-16z"/>
 <path d="m385.01 203 15.453-4.1406 4.1406 15.453-15.453 4.1406z"/>
 <path d="m368.71 169.09 13.859-8 7.9961 13.859-13.855 7.9961z"/>
 <path d="m344.19 140.51 11.309-11.316 11.32 11.309-11.312 11.316z"/>
 <path d="m313.06 119.3 8-13.848 13.848 7.9961-8 13.848z"/>
 <path d="m240 280h16v96h-16z"/>
 <path d="m272 280h16v16h-16z"/>
 <path d="m272 312h16v64h-16z"/>
 <path d="m208 280h16v16h-16z"/>
 <path d="m208 312h16v64h-16z"/>
</svg>
