<?xml version="1.0" encoding="UTF-8"?>
<svg width="496pt" height="496pt" version="1.1" viewBox="0 0 496 496" xmlns="http://www.w3.org/2000/svg" xmlns:cc="http://creativecommons.org/ns#" xmlns:dc="http://purl.org/dc/elements/1.1/" xmlns:rdf="http://www.w3.org/1999/02/22-rdf-syntax-ns#">
 <metadata>
  <rdf:RDF>
   <cc:Work rdf:about="">
    <dc:format>image/svg+xml</dc:format>
    <dc:type rdf:resource="http://purl.org/dc/dcmitype/StillImage"/>
    <dc:title/>
   </cc:Work>
  </rdf:RDF>
 </metadata>
 <path d="m352 296v184h-336v-432h32v202.43l3.7188 5.5742h-19.719v96h112v-96h-19.719l3.7188-5.5742v-202.43h124.35v-16h-124.35v-8c0-13.23-10.77-24-24-24h-32c-13.23 0-24 10.77-24 24v8h-48v464h368v-200zm-240-56h-16v-128h16zm-48-128h16v128h-16zm41.055 144-17.055 25.574-17.055-25.574zm6.9453-160h-48v-16h48zm16 176v64h-80v-64h14.383l25.617 38.426 25.617-38.426zm-56-256h32c4.4141 0 8 3.5859 8 8v40h-48v-40c0-4.4141 3.5859-8 8-8z"/>
 <path d="m32 368v96h112v-84.688l13.656-13.656-11.312-11.312-13.656 13.656zm96 80h-80v-64h68.688l-36.688 36.688-10.344-10.344-11.312 11.312 21.656 21.656 48-48z"/>
 <g fill="#ea8c0c">
  <path d="m224 312v-32h-64v64h144v-32z"/>
  <path d="m160 392h176v72h-176z"/>
  <path d="m496 182.21v-60.422l-29.832-7.6406c-2.3359-7.5586-5.3594-14.863-9.0078-21.793l15.688-26.48-42.727-42.727-26.48 15.688c-6.9219-3.6484-14.227-6.6719-21.793-9.0078l-7.6406-29.824h-60.422l-7.6406 29.832c-7.5586 2.3359-14.863 5.3594-21.793 9.0078l-26.48-15.688-42.727 42.727 15.688 26.48c-3.6484 6.9219-6.6719 14.227-9.0078 21.793l-29.824 7.6406v60.422l29.832 7.6406c2.3359 7.5586 5.3594 14.863 9.0078 21.793l-15.688 26.48 42.727 42.727 26.48-15.688c6.9219 3.6484 14.227 6.6719 21.793 9.0078l7.6406 29.824h60.422l7.6406-29.832c7.5586-2.3359 14.863-5.3594 21.793-9.0078l26.48 15.688 42.727-42.727-15.688-26.48c3.6484-6.9219 6.6719-14.227 9.0078-21.793zm-152 25.793c-30.93 0-56-25.07-56-56s25.07-56 56-56 56 25.07 56 56-25.07 56-56 56z"/>
 </g>
 <path d="m344 248c-52.938 0-96-43.062-96-96s43.062-96 96-96 96 43.062 96 96-43.062 96-96 96zm0-176c-44.113 0-80 35.887-80 80s35.887 80 80 80 80-35.887 80-80-35.887-80-80-80z"/>
 <path d="m344 216c-35.289 0-64-28.711-64-64s28.711-64 64-64 64 28.711 64 64-28.711 64-64 64zm0-112c-26.473 0-48 21.527-48 48s21.527 48 48 48 48-21.527 48-48-21.527-48-48-48z"/>
 <path d="m320 448h16v16h-16z"/>
 <path d="m160 448h144v16h-144z"/>
 <path d="m160 416h176v16h-176z"/>
 <path d="m160 384h176v16h-176z"/>
 <path d="m160 336h144v16h-144z"/>
 <path d="m160 304h144v16h-144z"/>
 <path d="m160 272h64v16h-64z"/>
</svg>
