<?xml version="1.0" encoding="UTF-8"?>
<!-- Generator: Adobe Illustrator 19.0.0, SVG Export Plug-In . SVG Version: 6.00 Build 0)  -->
<svg enable-background="new 0 0 496 496" version="1.1" viewBox="0 0 496 496" xml:space="preserve" xmlns="http://www.w3.org/2000/svg" xmlns:cc="http://creativecommons.org/ns#" xmlns:dc="http://purl.org/dc/elements/1.1/" xmlns:rdf="http://www.w3.org/1999/02/22-rdf-syntax-ns#"><metadata><rdf:RDF><cc:Work rdf:about=""><dc:format>image/svg+xml</dc:format><dc:type rdf:resource="http://purl.org/dc/dcmitype/StillImage"/><dc:title/></cc:Work></rdf:RDF></metadata>
<g fill="#ea8c0c">
	<rect x="208" y="120" width="192" height="16"/>
	<rect x="208" y="152" width="192" height="16"/>
	<polygon points="24.8 136 32 208 80 208 87.2 136"/>
</g>
<path d="m483.34 210.5-18.264-13.696c-4.136-3.096-9.248-4.8-14.408-4.8h-10.664v-64c0-13.232-10.768-24-24-24h-9.136c-3.576-13.768-16-24-30.864-24h-144c-14.864 0-27.288 10.232-30.864 24h-9.136c-13.232 0-24 10.768-24 24v64h-10.664c-5.16 0-10.272 1.704-14.392 4.808l-18.272 13.696c-7.936 5.944-12.672 15.408-12.672 25.328 0 3.72 0.648 7.36 1.904 10.824l5.968 16.424c15.808 43.48 23.888 88.96 24.088 135.2-4.848 4.384-7.96 10.672-7.96 17.72 0 13.232 10.768 24 24 24 11.16 0 20.488-7.696 23.16-18.032 15.096-5.16 68.296-21.968 120.84-21.968s105.74 16.808 120.84 21.968c2.672 10.336 12 18.032 23.16 18.032 13.232 0 24-10.768 24-24 0-7.048-3.112-13.336-7.96-17.728 0.2-46.24 8.28-91.72 24.088-135.2l5.968-16.408c1.256-3.48 1.904-7.12 1.904-10.832 0-9.92-4.736-19.384-12.664-25.336zm-27.864-0.896 18.264 13.696c0.272 0.208 0.48 0.48 0.736 0.704h-31.16l-16-16h23.352c1.72 0 3.424 0.568 4.808 1.6zm-58.784 38.4 24 24h-233.38l24-24h185.38zm11.312-16v-11.056c0-2.688 0.872-5.192 2.328-7.304l21.672 21.672v25.376l-24-24v-4.688zm-210.33-18.36c1.456 2.112 2.328 4.616 2.328 7.304v15.744l-24 24v-25.376l21.672-21.672zm-21.672 74.36h256v16c0 4.416-3.592 8-8 8h-240c-4.408 0-8-3.584-8-8v-16zm248-160v64h-3.056c-4.472 0-8.944 1.056-12.944 3.056v-75.056h8c4.408 0 8 3.584 8 8zm-208-16c0-8.824 7.176-16 16-16h144c8.824 0 16 7.176 16 16v120h-176v-120zm-32 16c0-4.416 3.592-8 8-8h8v75.056c-4-2-8.472-3.056-12.944-3.056h-3.056v-64zm-31.464 81.6c1.376-1.032 3.08-1.6 4.8-1.6h23.352l-16 16h-31.16c0.256-0.224 0.464-0.496 0.736-0.704l18.272-13.696zm-17.624 48-5.976-16.44c-0.136-0.376-0.2-0.776-0.312-1.16h31.376v152c-0.056 0-0.112 0.016-0.176 0.016-0.872-45.952-9.176-91.136-24.912-134.42zm25.088 166.4c-4.408 0-8-3.584-8-8s3.592-8 8-8 8 3.584 8 8-3.592 8-8 8zm21.536-18.392c-1.36-2.808-3.24-5.296-5.536-7.36v-71.72c2.512 0.896 5.184 1.472 8 1.472h240c2.816 0 5.488-0.576 8-1.472v71.72c-2.296 2.072-4.168 4.552-5.536 7.36-19.56-6.504-70.568-21.608-122.46-21.608s-102.9 15.104-122.46 21.608zm266.46 18.392c-4.408 0-8-3.584-8-8s3.592-8 8-8 8 3.584 8 8-3.592 8-8 8zm25.088-166.4c-15.736 43.272-24.04 88.456-24.912 134.42-0.064 0-0.12-0.016-0.176-0.016v-152h31.376c-0.112 0.392-0.176 0.792-0.32 1.176l-5.968 16.424z"/>
<path d="M64,216h48v-16H88.84L96,128v-24H67.608l3.56-32H104V56H56.84l-5.336,48H16l0.04,24.8l7.12,71.2H0v16h48v208H0v16h112v-16  H64V216z M80.016,120l0.016,7.2l-7.28,72.8H56.936l8.888-80H80.016z M32,128v-8h17.728l-8.888,80h-1.6L32,128z"/>















</svg>
