<?xml version="1.0" encoding="UTF-8"?>
<svg width="489pt" height="489pt" version="1.1" viewBox="0 -20 489.95 489" xmlns="http://www.w3.org/2000/svg" xmlns:cc="http://creativecommons.org/ns#" xmlns:dc="http://purl.org/dc/elements/1.1/" xmlns:rdf="http://www.w3.org/1999/02/22-rdf-syntax-ns#">
 <metadata>
  <rdf:RDF>
   <cc:Work rdf:about="">
    <dc:format>image/svg+xml</dc:format>
    <dc:type rdf:resource="http://purl.org/dc/dcmitype/StillImage"/>
    <dc:title/>
   </cc:Work>
  </rdf:RDF>
 </metadata>
 <path d="m244.98 32.477c-106.04 0-192 85.961-192 192 0 106.04 85.961 192 192 192 106.04 0 192-85.961 192-192 0-106.04-85.961-192-192-192zm0 344c-83.945 0-152-68.055-152-152 0-83.945 68.055-152 152-152 83.945 0 152 68.055 152 152 0 83.945-68.055 152-152 152z" fill="#ea8c0c"/>
 <path d="m244.98 16.477c106.17 0 195.03 79.48 206.69 184.88l1.832 16.551 36.457-36.453-11.312-11.312-13.434 13.422c-19.359-105.45-111.34-183.09-220.23-183.09-5.5352 0-11.121 0.19922-16.586 0.59766l1.168 15.961c5.082-0.375 10.266-0.55859 15.418-0.55859z"/>
 <path d="m244.98 432.48c-106.17 0-195.03-79.488-206.69-184.88l-1.832-16.555-36.457 36.457 11.312 11.312 13.43-13.426c19.363 105.45 111.35 183.09 220.23 183.09 5.5508 0 11.145-0.19922 16.59-0.60937l-1.1836-15.953c-5.0547 0.37891-10.238 0.5625-15.406 0.5625z"/>
 <path d="m244.98 64.477c-88.223 0-160 71.777-160 160 0 88.223 71.777 160 160 160 88.223 0 160-71.777 160-160 0-88.223-71.777-160-160-160zm8 303.59v-39.59h-16v39.59c-73.008-4.0391-131.55-62.582-135.59-135.59h39.594v-16h-39.594c4.043-73.008 62.586-131.55 135.59-135.59v39.594h16v-39.594c73.008 4.043 131.55 62.586 135.59 135.59h-39.59v16h39.59c-4.0391 73.008-62.582 131.55-135.59 135.59z"/>
 <path d="m252.98 201.95v-65.473h-16v65.473c-9.2891 3.3125-16 12.109-16 22.527 0 13.23 10.766 24 24 24 10.414 0 19.215-6.7109 22.527-16h33.473v-16h-33.473c-2.4141-6.7773-7.75-12.113-14.527-14.527zm-8 30.527c-4.418 0-8-3.5938-8-8 0-4.4102 3.582-8 8-8 4.4141 0 8 3.5898 8 8 0 4.4062-3.5859 8-8 8z"/>
 <path d="m193.42 6.3477 15.684-3.125 3.125 15.691-15.684 3.1211z"/>
 <path d="m151.87 20.582 14.785-6.1211 6.1172 14.785-14.781 6.1172z"/>
 <path d="m113.88 42.664 13.305-8.8828 8.8867 13.305-13.309 8.8867z"/>
 <path d="m80.926 71.742 11.312-11.312 11.312 11.312-11.312 11.312z"/>
 <path d="m54.27 106.68 8.8906-13.301 13.301 8.8906-8.8867 13.301z"/>
 <path d="m34.961 146.14 6.125-14.781 14.781 6.125-6.125 14.781z"/>
 <path d="m23.723 188.62 3.1211-15.691 15.691 3.1172-3.1172 15.695z"/>
 <path d="m277.71 430.01 15.684-3.1211 3.125 15.691-15.684 3.1211z"/>
 <path d="m317.19 419.7 14.785-6.1172 6.1172 14.785-14.781 6.1172z"/>
 <path d="m353.91 401.86 13.316-8.8906 8.8828 13.309-13.312 8.8906z"/>
 <path d="m386.39 377.21 11.312-11.312 11.312 11.312-11.312 11.312z"/>
 <path d="m413.5 346.7 8.8906-13.312 13.305 8.8867-8.8867 13.312z"/>
 <path d="m434.09 311.47 6.1172-14.781 14.785 6.1172-6.1211 14.785z"/>
 <path d="m447.41 272.93 3.125-15.684 15.691 3.125-3.125 15.684z"/>
</svg>
