<svg width="512" height="512" viewBox="0 0 512 512" fill="none" xmlns="http://www.w3.org/2000/svg">
<g clip-path="url(#clip0_2142_3297)">
<path d="M480 288H32C18.744 288 8 277.256 8 264C8 250.744 18.744 240 32 240H480C493.256 240 504 250.744 504 264C504 277.256 493.256 288 480 288Z" fill="#E4880C"/>
<path d="M256 392C264.304 392 271.616 397.464 273.968 405.424L287.528 451.328C292.552 468.336 308.168 480 325.888 480H432C454.088 480 472 462.088 472 440V376C472 353.912 454.088 336 432 336H80C57.912 336 40 353.912 40 376V440C40 462.088 57.912 480 80 480H186.112C203.84 480 219.448 468.336 224.472 451.336L238.032 405.432C240.384 397.464 247.696 392 256 392Z" fill="#E4880C"/>
<path d="M472 272C467.576 272 464 268.416 464 264C464 172.256 405.176 92.376 317.632 65.24C313.416 63.928 311.048 59.448 312.36 55.232C313.664 51.016 318.136 48.648 322.368 49.96C416.656 79.184 480 165.2 480 264C480 268.416 476.424 272 472 272Z" fill="#343538"/>
<path d="M40 272C35.576 272 32 268.416 32 264C32 165.2 95.344 79.184 189.632 49.96C193.872 48.656 198.336 51.016 199.64 55.232C200.952 59.448 198.584 63.928 194.368 65.24C106.824 92.376 48 172.256 48 264C48 268.416 44.424 272 40 272Z" fill="#343538"/>
<path d="M81.344 213.664C80.512 213.664 79.672 213.528 78.84 213.256C74.648 211.872 72.36 207.344 73.752 203.152C76.896 193.616 80.832 184.256 85.448 175.344C90.016 166.496 95.336 157.936 101.256 149.896C103.872 146.344 108.872 145.576 112.44 148.2C116 150.816 116.76 155.824 114.144 159.384C108.72 166.744 103.848 174.592 99.656 182.696C95.432 190.864 91.824 199.432 88.936 208.168C87.832 211.528 84.704 213.664 81.344 213.664Z" fill="#343538"/>
<path d="M123.968 143.472C121.952 143.472 119.936 142.712 118.376 141.192C115.216 138.104 115.16 133.04 118.248 129.88L120.856 127.256C123.992 124.152 129.064 124.184 132.168 127.336C135.272 130.48 135.24 135.544 132.088 138.648L129.68 141.064C128.128 142.664 126.048 143.472 123.968 143.472Z" fill="#343538"/>
<path d="M480 320H32C14.352 320 0 305.648 0 288C0 270.352 14.352 256 32 256H480C497.648 256 512 270.352 512 288C512 305.648 497.648 320 480 320ZM32 272C23.176 272 16 279.176 16 288C16 296.824 23.176 304 32 304H480C488.824 304 496 296.824 496 288C496 279.176 488.824 272 480 272H32Z" fill="#343538"/>
<path d="M320 96C315.576 96 312 92.416 312 88V24C312 19.592 308.416 16 304 16H208C203.584 16 200 19.592 200 24V88C200 92.416 196.424 96 192 96C187.576 96 184 92.416 184 88V24C184 10.768 194.768 0 208 0H304C317.232 0 328 10.768 328 24V88C328 92.416 324.424 96 320 96Z" fill="#343538"/>
<path d="M280 64C275.576 64 272 60.416 272 56V8C272 3.584 275.576 0 280 0C284.424 0 288 3.584 288 8V56C288 60.416 284.424 64 280 64Z" fill="#343538"/>
<path d="M232 64C227.576 64 224 60.416 224 56V8C224 3.584 227.576 0 232 0C236.424 0 240 3.584 240 8V56C240 60.416 236.424 64 232 64Z" fill="#343538"/>
<path d="M40 464H16C7.176 464 0 456.824 0 448V416C0 407.176 7.176 400 16 400H40C44.424 400 48 403.584 48 408V456C48 460.416 44.424 464 40 464ZM16 416V448H32V416H16Z" fill="#343538"/>
<path d="M496 464H472C467.576 464 464 460.416 464 456V408C464 403.584 467.576 400 472 400H496C504.824 400 512 407.176 512 416V448C512 456.824 504.824 464 496 464ZM480 448H496.008L496 416H480V448Z" fill="#343538"/>
<path d="M432 512H325.888C304.768 512 285.84 497.856 279.856 477.6L266.296 431.696C264.96 427.168 260.728 424 256 424C251.272 424 247.04 427.168 245.704 431.688L232.144 477.6C226.16 497.856 207.232 512 186.112 512H80C53.528 512 32 490.472 32 464V400C32 373.528 53.528 352 80 352H432C458.472 352 480 373.528 480 400V464C480 490.472 458.472 512 432 512ZM256 408C267.768 408 278.312 415.88 281.64 427.16L295.2 473.064C299.192 486.568 311.816 496 325.888 496H432C449.648 496 464 481.648 464 464V400C464 382.352 449.648 368 432 368H80C62.352 368 48 382.352 48 400V464C48 481.648 62.352 496 80 496H186.112C200.192 496 212.808 486.568 216.8 473.064L230.36 427.16C233.688 415.88 244.232 408 256 408Z" fill="#343538"/>
<path d="M72 464C67.576 464 64 460.416 64 456V424C64 419.584 67.576 416 72 416C76.424 416 80 419.584 80 424V456C80 460.416 76.424 464 72 464Z" fill="#343538"/>
<path d="M72 408C69.92 408 67.832 407.12 66.32 405.68C64.872 404.168 64 402.08 64 400C64 397.92 64.872 395.84 66.32 394.32C69.28 391.36 74.72 391.36 77.68 394.32C79.12 395.84 80 397.84 80 400C80 402.16 79.12 404.16 77.6 405.68C76.16 407.12 74.16 408 72 408Z" fill="#343538"/>
<path d="M256 240C253.92 240 251.832 239.12 250.32 237.68C248.872 236.168 248 234.08 248 232C248 229.92 248.872 227.84 250.32 226.32C253.28 223.36 258.64 223.36 261.68 226.32C263.12 227.84 264 229.92 264 232C264 234.08 263.12 236.16 261.68 237.68C260.16 239.12 258.08 240 256 240Z" fill="#343538"/>
<path d="M224 240C221.92 240 219.832 239.12 218.32 237.68C216.872 236.168 216 234.168 216 232C216 229.92 216.872 227.84 218.32 226.32C221.28 223.36 226.64 223.36 229.68 226.32C231.12 227.84 232 229.92 232 232C232 234.08 231.12 236.16 229.68 237.68C228.16 239.12 226.08 240 224 240Z" fill="#343538"/>
<path d="M288 240C285.92 240 283.832 239.12 282.32 237.68C280.872 236.168 280 234.08 280 232C280 229.92 280.872 227.84 282.32 226.32C285.28 223.36 290.64 223.36 293.68 226.32C295.12 227.84 296 229.92 296 232C296 234.08 295.12 236.16 293.68 237.68C292.16 239.12 290.08 240 288 240Z" fill="#343538"/>
<path d="M192 240C189.92 240 187.832 239.12 186.32 237.68C184.872 236.168 184 234.168 184 232C184 229.92 184.872 227.84 186.32 226.32C189.28 223.36 194.64 223.36 197.68 226.32C199.12 227.84 200 229.92 200 232C200 234.08 199.12 236.16 197.68 237.68C196.16 239.12 194.08 240 192 240Z" fill="#343538"/>
<path d="M320 240C317.92 240 315.832 239.12 314.32 237.68C312.872 236.168 312 234.168 312 232C312 229.832 312.872 227.84 314.32 226.32C317.36 223.36 322.72 223.36 325.68 226.32C327.12 227.84 328 229.92 328 232C328 234.08 327.12 236.16 325.68 237.68C324.16 239.12 322.08 240 320 240Z" fill="#343538"/>
</g>
<defs>
<clipPath id="clip0_2142_3297">
<rect width="512" height="512" fill="white"/>
</clipPath>
</defs>
</svg>
