<svg width="133" height="34" viewBox="0 0 133 34" fill="none" xmlns="http://www.w3.org/2000/svg">
<g filter="url(#filter0_d_729_134)">
<path d="M16.2009 29.4727C15.941 29.4727 15.7851 29.2649 15.7851 29.057V16.064C15.7851 15.8041 15.993 15.6482 16.2009 15.6482C16.4607 15.6482 16.6166 15.8561 16.6166 16.064V29.057C16.6166 29.2649 16.4607 29.4727 16.2009 29.4727Z" fill="white"/>
<path d="M27.7907 14.6087C27.5309 14.6087 27.3749 14.4008 27.3749 14.1929V1.19996C27.3749 0.940096 27.5828 0.78418 27.7907 0.78418C28.0506 0.78418 28.2065 0.992068 28.2065 1.19996V14.1929C28.2585 14.4008 28.0506 14.6087 27.7907 14.6087Z" fill="white"/>
<path d="M60.8967 16.9471C60.6369 16.9471 60.481 16.7392 60.481 16.5313V3.53833C60.481 3.27847 60.6888 3.12256 60.8967 3.12256C61.1566 3.12256 61.3125 3.33045 61.3125 3.53833V16.5313C61.3645 16.7392 61.1566 16.9471 60.8967 16.9471Z" fill="white"/>
<path d="M85.1157 24.3277C84.8559 24.3277 84.7 24.1198 84.7 23.9119V10.8669C84.7 10.6071 84.9078 10.4512 85.1157 10.4512C85.3756 10.4512 85.5315 10.6591 85.5315 10.8669V23.8599C85.5835 24.1198 85.3756 24.3277 85.1157 24.3277Z" fill="white"/>
<path d="M40.108 5.72168H37.8732C37.5614 5.72168 37.4055 5.8776 37.4055 6.18943V14.349C37.4055 14.8688 37.3535 15.3365 37.3015 15.7003C37.1976 16.0641 37.0937 16.324 36.8858 16.5838C36.6779 16.7917 36.418 16.9476 36.0542 17.0516C35.6904 17.1555 35.2746 17.2075 34.7549 17.2075H29.09C28.5702 17.2075 28.1025 17.1555 27.7907 17.0516C27.4269 16.9476 27.167 16.7917 26.9591 16.5838C26.7512 16.3759 26.5953 16.0641 26.5433 15.7003C26.3874 15.3365 26.3874 14.8688 26.3874 14.349V6.18943C26.3874 5.8776 26.2315 5.72168 25.9197 5.72168H23.7369C23.425 5.72168 23.2691 5.8776 23.2691 6.18943V14.6609C23.2691 15.6483 23.373 16.4799 23.5809 17.1555C23.7888 17.8312 24.1007 18.4028 24.5684 18.8186C25.0362 19.2344 25.6078 19.5462 26.3355 19.7541C27.0631 19.962 27.9466 20.014 28.986 20.014H34.8589C35.8983 20.014 36.7818 19.91 37.5094 19.7541C38.237 19.5462 38.8087 19.2344 39.2765 18.8186C39.7442 18.4028 40.0561 17.8312 40.2639 17.1555C40.4718 16.4799 40.5758 15.6483 40.5758 14.6609V6.18943C40.5758 5.8776 40.4199 5.72168 40.108 5.72168Z" fill="white"/>
<path d="M53.8286 7.28084C53.4648 6.65718 53.1529 6.2414 52.7891 6.03351C52.4253 5.82562 52.0096 5.72168 51.4898 5.72168H50.2945C49.8787 5.72168 49.4629 5.82562 49.1511 6.03351C48.8393 6.2414 48.4755 6.65718 48.1636 7.28084L41.4592 19.5462C41.4073 19.7021 41.3553 19.8061 41.4073 19.8581C41.4592 19.962 41.5632 20.014 41.7191 20.014H44.3697C44.5776 20.014 44.7335 19.91 44.8374 19.7541L46.2407 17.1035H55.8555L57.3107 19.7541C57.4146 19.91 57.5706 20.014 57.7784 20.014H60.377C60.533 20.014 60.6369 19.962 60.6889 19.8581C60.7409 19.7541 60.6889 19.6502 60.6369 19.5462L53.8286 7.28084ZM47.54 14.7648L50.7103 8.78803C50.7622 8.68408 50.8142 8.63211 50.9181 8.63211H51.0221C51.126 8.63211 51.178 8.68408 51.23 8.78803L54.4522 14.7648H47.54Z" fill="white"/>
<path d="M75.2931 15.1804C76.3845 14.9725 77.1641 14.5567 77.6318 13.8811C78.0996 13.2054 78.3594 12.2699 78.3594 11.1266V9.98317C78.3594 8.57992 77.9956 7.54049 77.32 6.81288C76.6443 6.08527 75.501 5.77344 73.9418 5.77344H62.9757C62.5599 5.77344 62.3521 5.98133 62.3521 6.3971V19.65C62.3521 19.9618 62.508 20.1177 62.8198 20.1177H65.0026C65.3145 20.1177 65.4704 19.9618 65.4704 19.65V15.5442H72.0708L75.2931 19.8059C75.3451 19.9098 75.449 19.9618 75.501 20.0138C75.5529 20.0657 75.7089 20.0657 75.8648 20.0657H78.5153C78.7232 20.0657 78.8272 20.0138 78.8272 19.8578C78.8791 19.7019 78.8272 19.598 78.7752 19.546L75.2931 15.1804ZM75.1891 11.2305C75.1891 11.8542 75.0332 12.3219 74.7734 12.5818C74.4615 12.8936 73.9938 13.0495 73.3181 13.0495H65.4704V8.78781C65.4704 8.6319 65.5743 8.52795 65.7302 8.52795H73.2662C73.9418 8.52795 74.4615 8.68387 74.7214 8.9957C75.0332 9.30753 75.1372 9.77528 75.1372 10.347V11.2305H75.1891Z" fill="white"/>
<path d="M14.7457 19.7021V16.8437H8.82086C8.30114 16.8437 7.8334 16.7917 7.52156 16.6878C7.15776 16.5838 6.8979 16.4279 6.69001 16.22C6.48212 16.0121 6.32621 15.7003 6.27424 15.3885C6.17029 15.0766 6.11832 14.6089 6.11832 14.0892V11.3866C6.11832 10.8669 6.17029 10.3992 6.27424 10.0354C6.37818 9.67155 6.5341 9.41169 6.69001 9.2038C6.8979 8.94394 7.15776 8.78803 7.52156 8.73606C7.88537 8.63211 8.30114 8.58014 8.82086 8.58014H14.9016C15.4213 8.58014 15.8891 8.63211 16.2009 8.73606C16.5647 8.84 16.8246 8.99592 17.0324 9.2038C17.2403 9.41169 17.3962 9.72352 17.4482 10.0354C17.5002 10.3472 17.6041 10.8669 17.6041 11.3866V25.3671C17.6041 25.6789 17.76 25.8348 18.0719 25.8348H20.3067C20.6185 25.8348 20.7744 25.6789 20.7744 25.3671V6.18943C20.7744 5.8776 20.6185 5.72168 20.3067 5.72168H18.0719C17.864 5.72168 17.7081 5.82562 17.6561 6.03351C17.4482 5.98154 17.1364 5.92957 16.8765 5.8776C16.8246 5.8776 16.7726 5.82562 16.7206 5.82562H16.6167C16.1489 5.77365 15.6292 5.72168 15.0575 5.72168H13.2905H8.71692C7.67748 5.72168 6.79396 5.82562 6.06635 6.03351C5.33874 6.2414 4.76705 6.55323 4.2993 6.96901C3.83155 7.38478 3.51972 7.95648 3.31183 8.63211C3.10394 9.30775 3 10.1393 3 11.1268V14.2971C3 15.2845 3.10394 16.1161 3.31183 16.7917C3.51972 17.4674 3.83155 18.039 4.2993 18.4548C4.76705 18.8706 5.33874 19.1824 6.06635 19.3903C6.79396 19.5982 7.67748 19.7021 8.71692 19.7021H14.7457Z" fill="white"/>
<path d="M80.8021 25.3672C80.8021 25.6791 80.958 25.835 81.2699 25.835H83.5047C83.8165 25.835 83.9724 25.6791 83.9724 25.3672V0.940404C83.9724 0.628572 83.8165 0.472656 83.5047 0.472656H81.3218C81.01 0.472656 80.8541 0.628572 80.8541 0.940404V25.3672H80.8021Z" fill="white"/>
<path d="M96.5496 19.4945L92.3918 14.1934C91.8721 13.5178 91.3524 13.05 90.8327 12.7382C91.0405 12.5823 91.1965 12.3744 91.4044 12.1665C91.6122 11.9586 91.8201 11.6987 92.028 11.3869L95.9779 6.24167C96.0299 6.13773 96.0818 6.03379 96.0299 5.92984C95.9779 5.8259 95.8739 5.77393 95.718 5.77393H93.1714C92.9635 5.77393 92.8596 5.77393 92.8076 5.8259C92.7556 5.87787 92.6517 5.92984 92.5997 6.03379L89.0656 10.7113C88.9097 10.9192 88.7538 11.0751 88.6498 11.179C88.4939 11.283 88.338 11.3869 88.1821 11.4389C88.0262 11.4908 87.8183 11.5428 87.6104 11.5948C87.4025 11.5948 87.1426 11.6468 86.7788 11.6468H86.2072V13.9855H86.9867C87.6104 13.9855 88.0781 14.0375 88.39 14.1934C88.7018 14.3493 89.0136 14.5572 89.2735 14.921L93.0155 19.8064C93.0675 19.9103 93.1714 19.9623 93.2234 20.0143C93.2753 20.0662 93.4313 20.0662 93.5872 20.0662H96.1858C96.3937 20.0662 96.4976 20.0143 96.4976 19.8583C96.6535 19.7024 96.6015 19.5985 96.5496 19.4945Z" fill="white"/>
<path fill-rule="evenodd" clip-rule="evenodd" d="M101.586 5.47266C100.711 5.47266 100.001 6.18245 100.001 7.05802V18.0158C100.001 18.8914 100.711 19.6012 101.586 19.6012H129.027C129.903 19.6012 130.613 18.8914 130.613 18.0158V7.05802C130.613 6.18245 129.903 5.47266 129.027 5.47266H101.586ZM111.414 7.47273H103.446C103.149 7.47273 103.001 7.62111 103.001 7.91785V17.5325C103.001 17.7551 103.12 17.8589 103.342 17.8589H104.945C105.167 17.8589 105.271 17.7551 105.271 17.5325V14.5798H110.064L112.408 17.666C112.497 17.7996 112.571 17.8589 112.823 17.8589H114.737C115.004 17.8589 115.019 17.5918 114.93 17.488L112.393 14.3425C113.951 14.0605 114.604 13.0664 114.604 11.375V10.5292C114.604 8.52619 113.684 7.47273 111.414 7.47273ZM105.271 12.7697V9.68351C105.271 9.56481 105.33 9.50546 105.464 9.50546H110.954C111.963 9.50546 112.334 9.93574 112.334 10.826V11.4492C112.334 12.3394 111.963 12.7697 110.954 12.7697H105.271ZM118.377 7.47273H116.774C116.552 7.47273 116.433 7.57659 116.433 7.79916V17.5325C116.433 17.7551 116.552 17.8589 116.774 17.8589H118.377C118.599 17.8589 118.703 17.7551 118.703 17.5325V13.5857H125.647V17.5325C125.647 17.7551 125.751 17.8589 125.973 17.8589H127.576C127.798 17.8589 127.917 17.7551 127.917 17.5325V7.79916C127.917 7.57659 127.798 7.47273 127.576 7.47273H125.973C125.751 7.47273 125.647 7.57659 125.647 7.79916V11.6569H118.703V7.79916C118.703 7.57659 118.599 7.47273 118.377 7.47273Z" fill="white"/>
</g>
<defs>
<filter id="filter0_d_729_134" x="0.886177" y="0.472656" width="131.84" height="33.2276" filterUnits="userSpaceOnUse" color-interpolation-filters="sRGB">
<feFlood flood-opacity="0" result="BackgroundImageFix"/>
<feColorMatrix in="SourceAlpha" type="matrix" values="0 0 0 0 0 0 0 0 0 0 0 0 0 0 0 0 0 0 127 0" result="hardAlpha"/>
<feOffset dy="2.11382"/>
<feGaussianBlur stdDeviation="1.05691"/>
<feComposite in2="hardAlpha" operator="out"/>
<feColorMatrix type="matrix" values="0 0 0 0 0 0 0 0 0 0 0 0 0 0 0 0 0 0 0.25 0"/>
<feBlend mode="normal" in2="BackgroundImageFix" result="effect1_dropShadow_729_134"/>
<feBlend mode="normal" in="SourceGraphic" in2="effect1_dropShadow_729_134" result="shape"/>
</filter>
</defs>
</svg>
