<svg width="82" height="90" viewBox="0 0 82 90" fill="none" xmlns="http://www.w3.org/2000/svg">
<path d="M26.1818 79.1836H5.41636C4.73675 79.1597 4.08725 78.8973 3.58163 78.4426C3.07602 77.9878 2.74654 77.3696 2.65091 76.6964L2.30727 74.8309C1.26 69.0873 5.25273 63.8182 10.5873 63.8182H20.9782C26.3127 63.8182 30.3218 69.1527 29.2745 74.8964L28.9309 76.7618C28.8191 77.4192 28.4852 78.0183 27.9848 78.4591C27.4845 78.8998 26.848 79.1556 26.1818 79.1836Z" fill="#B5B5B5"/>
<path d="M76.3527 79.1346H55.6364C54.9577 79.1075 54.3099 78.844 53.8049 78.3898C53.3 77.9357 52.9696 77.3193 52.8709 76.6473L52.5273 74.7655C51.48 69.0219 55.4891 63.6546 60.84 63.6546H71.2473C76.5982 63.6546 80.6073 69.0219 79.56 74.7655L79.2164 76.6473C79.1148 77.3356 78.7702 77.9647 78.2449 78.421C77.7196 78.8772 77.0484 79.1303 76.3527 79.1346Z" fill="#B5B5B5"/>
<path d="M53.2309 88.3636H28.5873C27.7832 88.3335 27.0153 88.0221 26.4172 87.4839C25.8191 86.9456 25.4289 86.2146 25.3145 85.4181L24.9055 83.1927C23.6618 76.369 28.4236 70.02 34.7236 70.02H47.0618C53.3945 70.02 58.1564 76.369 56.88 83.1927L56.4709 85.4181C56.3576 86.2093 55.9721 86.9361 55.3808 87.4737C54.7894 88.0113 54.0292 88.326 53.2309 88.3636Z" fill="url(#paint0_linear_4020_3)"/>
<path d="M40.9091 63.3437C45.5362 63.3437 49.2873 59.6146 49.2873 55.0146C49.2873 50.4145 45.5362 46.6855 40.9091 46.6855C36.2819 46.6855 32.5309 50.4145 32.5309 55.0146C32.5309 59.6146 36.2819 63.3437 40.9091 63.3437Z" fill="white"/>
<path d="M15.7255 58.1564C19.6025 58.1564 22.7455 55.0281 22.7455 51.1691C22.7455 47.3101 19.6025 44.1818 15.7255 44.1818C11.8484 44.1818 8.70546 47.3101 8.70546 51.1691C8.70546 55.0281 11.8484 58.1564 15.7255 58.1564Z" fill="white"/>
<path d="M66.0927 58.1564C69.9698 58.1564 73.1127 55.0281 73.1127 51.1691C73.1127 47.3101 69.9698 44.1818 66.0927 44.1818C62.2157 44.1818 59.0727 47.3101 59.0727 51.1691C59.0727 55.0281 62.2157 58.1564 66.0927 58.1564Z" fill="white"/>
<path d="M9.81818 32.7273C7.64823 32.7273 5.56715 31.8653 4.03276 30.3309C2.49837 28.7965 1.63636 26.7154 1.63636 24.5454V9.81817C1.63636 7.64822 2.49837 5.56714 4.03276 4.03275C5.56715 2.49836 7.64823 1.63635 9.81818 1.63635H72C74.17 1.63635 76.251 2.49836 77.7854 4.03275C79.3198 5.56714 80.1818 7.64822 80.1818 9.81817V24.5454C80.1818 26.7154 79.3198 28.7965 77.7854 30.3309C76.251 31.8653 74.17 32.7273 72 32.7273H19.6364" fill="white"/>
<path d="M43.5109 9.68724L44.5091 11.7C44.7065 12.0981 44.997 12.4428 45.3559 12.7049C45.7148 12.9669 46.1316 13.1386 46.5709 13.2054L48.8127 13.5327C49.3184 13.6046 49.7939 13.8167 50.1851 14.1451C50.5764 14.4735 50.8678 14.9049 51.0262 15.3905C51.1847 15.8761 51.2039 16.3964 51.0816 16.8923C50.9594 17.3883 50.7005 17.84 50.3345 18.1963L48.6982 19.8327C48.377 20.1398 48.1371 20.5218 48 20.9445C47.8629 21.3672 47.8329 21.8174 47.9127 22.2545L48.2891 24.48C48.3744 24.9818 48.3179 25.4975 48.1259 25.9689C47.9339 26.4404 47.614 26.8488 47.2024 27.1482C46.7907 27.4476 46.3036 27.6261 45.7959 27.6635C45.2882 27.7009 44.7802 27.5958 44.3291 27.36L42.3327 26.1818C41.9402 25.9807 41.5055 25.8759 41.0645 25.8759C40.6235 25.8759 40.1889 25.9807 39.7964 26.1818L37.7836 27.2291C37.3325 27.4649 36.8245 27.57 36.3168 27.5326C35.8092 27.4952 35.322 27.3167 34.9104 27.0173C34.4987 26.7179 34.1788 26.3095 33.9868 25.838C33.7948 25.3666 33.7383 24.8509 33.8236 24.3491L34.2 22.1236C34.2798 21.6865 34.2498 21.2363 34.1127 20.8136C33.9757 20.3909 33.7357 20.0089 33.4145 19.7018L31.7782 18.0654C31.4122 17.7091 31.1534 17.2574 31.0311 16.7614C30.9089 16.2655 30.928 15.7452 31.0865 15.2596C31.245 14.774 31.5363 14.3426 31.9276 14.0142C32.3188 13.6858 32.7943 13.4736 33.3 13.4018L35.5418 13.0745C35.9745 13.0264 36.3897 12.8769 36.7537 12.638C37.1176 12.3992 37.4201 12.0778 37.6364 11.7L38.6345 9.68724C38.8584 9.23149 39.2055 8.8476 39.6364 8.57912C40.0674 8.31065 40.565 8.16833 41.0727 8.16833C41.5805 8.16833 42.0781 8.31065 42.509 8.57912C42.94 8.8476 43.2871 9.23149 43.5109 9.68724Z" fill="url(#paint1_linear_4020_3)"/>
<path d="M35.7218 13.091C35.5694 12.6594 35.3008 12.2783 34.9457 11.9896C34.5906 11.7009 34.1627 11.5158 33.7091 11.4546L31.6636 11.1764C31.2641 11.1174 30.8846 10.9632 30.5571 10.7268C30.2296 10.4905 29.9637 10.1788 29.7818 9.81822L28.8655 7.95277C28.6554 7.53625 28.3338 7.18623 27.9365 6.94167C27.5393 6.69712 27.082 6.56763 26.6155 6.56763C26.149 6.56763 25.6916 6.69712 25.2944 6.94167C24.8971 7.18623 24.5755 7.53625 24.3655 7.95277L23.4327 9.81822C23.2527 10.1833 22.9879 10.5 22.6606 10.742C22.3332 10.984 21.9528 11.1441 21.5509 11.2091L19.5055 11.4546C19.0415 11.5221 18.6056 11.7177 18.2467 12.0194C17.8879 12.3211 17.6203 12.7169 17.4741 13.1624C17.3279 13.6078 17.3088 14.0853 17.4191 14.5409C17.5293 14.9966 17.7645 15.4125 18.0982 15.7419L19.5873 17.1982C19.8798 17.4792 20.0996 17.8271 20.2279 18.212C20.3562 18.5968 20.389 19.007 20.3236 19.4073L19.9636 21.4528C19.8864 21.9148 19.9394 22.3892 20.1168 22.8228C20.2943 23.2564 20.589 23.6319 20.968 23.9072C21.347 24.1825 21.7953 24.3468 22.2624 24.3815C22.7296 24.4162 23.1972 24.32 23.6127 24.1037L25.4455 23.1382C25.8047 22.9531 26.2031 22.8565 26.6073 22.8565C27.0115 22.8565 27.4098 22.9531 27.7691 23.1382L29.6182 24.1037C30.4155 24.3967 31.2868 24.421 32.0992 24.1728C32.9116 23.9246 33.6207 23.4177 34.1182 22.7291" fill="url(#paint2_linear_4020_3)"/>
<path d="M47.9782 22.7455C48.4712 23.4348 49.1772 23.9429 49.9875 24.1913C50.7977 24.4397 51.6672 24.4146 52.4618 24.12L54.3109 23.1546C54.6702 22.9694 55.0685 22.8728 55.4727 22.8728C55.8769 22.8728 56.2753 22.9694 56.6345 23.1546L58.4673 24.12C58.8846 24.3549 59.3601 24.466 59.8382 24.4403C60.3164 24.4147 60.7773 24.2533 61.1671 23.9752C61.5568 23.697 61.8593 23.3136 62.039 22.8698C62.2187 22.4259 62.2682 21.9401 62.1818 21.4691L61.8382 19.4237C61.7664 19.0246 61.7946 18.614 61.9202 18.2285C62.0459 17.8431 62.2651 17.4947 62.5582 17.2146L64.0473 15.7582C64.3869 15.4263 64.6258 15.0052 64.7364 14.5435C64.8471 14.0817 64.8251 13.5981 64.6729 13.1483C64.5207 12.6985 64.2445 12.3009 63.8761 12.0012C63.5078 11.7016 63.0623 11.5121 62.5909 11.4546L60.5455 11.1928C60.1423 11.1319 59.7595 10.9753 59.4293 10.7362C59.0991 10.4971 58.8309 10.1823 58.6473 9.81822L57.7145 7.95277C57.5045 7.53625 57.1829 7.18623 56.7856 6.94167C56.3884 6.69712 55.931 6.56763 55.4645 6.56763C54.9981 6.56763 54.5407 6.69712 54.1435 6.94167C53.7462 7.18623 53.4246 7.53625 53.2145 7.95277L52.3636 9.81822C52.1897 10.1846 51.9287 10.5028 51.6036 10.7453C51.2785 10.9877 50.899 11.147 50.4982 11.2091L48.3709 11.4546C47.9173 11.5158 47.4895 11.7009 47.1343 11.9896C46.7792 12.2783 46.5106 12.6594 46.3582 13.091" fill="url(#paint3_linear_4020_3)"/>
<path d="M40.9091 64.9964C38.9363 64.9899 37.0096 64.399 35.3724 63.2982C33.7352 62.1975 32.4609 60.6363 31.7105 58.8118C30.96 56.9873 30.767 54.9813 31.1558 53.0472C31.5446 51.1131 32.4979 49.3376 33.8952 47.9448C35.2924 46.5521 37.0711 45.6047 39.0065 45.2222C40.9419 44.8397 42.9472 45.0393 44.7692 45.7957C46.5912 46.5522 48.1483 47.8316 49.2436 49.4724C50.339 51.1131 50.9236 53.0417 50.9236 55.0145C50.915 57.6649 49.8561 60.2037 47.9789 62.0748C46.1017 63.9458 43.5595 64.9964 40.9091 64.9964ZM40.9091 48.3218C39.5829 48.3283 38.2883 48.7277 37.189 49.4695C36.0897 50.2114 35.2348 51.2624 34.7325 52.4898C34.2303 53.7173 34.103 55.066 34.3669 56.3658C34.6308 57.6655 35.274 58.8578 36.2152 59.7922C37.1564 60.7265 38.3534 61.361 39.655 61.6153C40.9566 61.8697 42.3044 61.7326 43.5281 61.2214C44.7519 60.7101 45.7966 59.8477 46.5304 58.7429C47.2642 57.6382 47.6541 56.3408 47.6509 55.0145C47.6422 53.2337 46.9276 51.529 45.6637 50.2743C44.3999 49.0196 42.69 48.3175 40.9091 48.3218Z" fill="#252023"/>
<path d="M53.2309 90H28.5873C27.3967 89.9727 26.2533 89.5288 25.3564 88.7454C24.4594 87.962 23.8655 86.8889 23.6782 85.7128L23.2855 83.4546C22.9155 81.5402 22.9731 79.5677 23.4539 77.678C23.9348 75.7884 24.8272 74.0284 26.0673 72.5237C27.1177 71.2338 28.4393 70.1913 29.9383 69.4701C31.4372 68.7489 33.0766 68.3668 34.74 68.351H47.0782C48.7415 68.3668 50.381 68.7489 51.8799 69.4701C53.3789 70.1913 54.7005 71.2338 55.7509 72.5237C56.991 74.0284 57.8833 75.7884 58.3642 77.678C58.8451 79.5677 58.9027 81.5402 58.5327 83.4546L58.14 85.68C57.9596 86.8621 57.3688 87.9429 56.4711 88.7329C55.5735 89.5228 54.4263 89.9714 53.2309 90ZM34.74 71.6564C33.556 71.665 32.3889 71.9384 31.3243 72.4565C30.2597 72.9747 29.3245 73.7245 28.5873 74.6509C27.6623 75.7793 26.9955 77.0964 26.6337 78.5098C26.2718 79.9233 26.2237 81.3988 26.4927 82.8328L26.9018 85.091C26.9448 85.5103 27.131 85.902 27.4291 86.2001C27.7271 86.4981 28.1188 86.6843 28.5382 86.7273H53.2309C53.6502 86.6843 54.042 86.4981 54.34 86.2001C54.6381 85.902 54.8243 85.5103 54.8673 85.091L55.2764 82.8655C55.5454 81.4315 55.4973 79.956 55.1354 78.5426C54.7736 77.1291 54.1068 75.812 53.1818 74.6837C52.4446 73.7572 51.5094 73.0074 50.4448 72.4892C49.3801 71.9711 48.2131 71.6977 47.0291 71.6891L34.74 71.6564Z" fill="#252023"/>
<path d="M15.7255 59.7927C14.0213 59.7863 12.3572 59.275 10.9434 58.3235C9.52953 57.372 8.42931 56.0229 7.78162 54.4466C7.13394 52.8703 6.96782 51.1374 7.30425 49.4667C7.64069 47.7961 8.46458 46.2626 9.67191 45.0598C10.8792 43.857 12.4159 43.039 14.0878 42.7089C15.7597 42.3788 17.492 42.5514 19.0658 43.2051C20.6397 43.8587 21.9846 44.9641 22.9307 46.3815C23.8769 47.7989 24.3818 49.4649 24.3818 51.1691C24.3732 53.4592 23.4573 55.6526 21.8349 57.2689C20.2124 58.8853 18.0156 59.7928 15.7255 59.7927ZM15.7255 45.8182C14.6686 45.8247 13.6373 46.144 12.7616 46.7359C11.886 47.3277 11.2052 48.1657 10.8053 49.144C10.4053 50.1223 10.304 51.1971 10.5141 52.2329C10.7243 53.2687 11.2364 54.2191 11.9861 54.9642C12.7357 55.7093 13.6892 56.2156 14.7262 56.4195C15.7633 56.6233 16.8375 56.5154 17.8134 56.1095C18.7892 55.7036 19.623 55.0177 20.2095 54.1385C20.7961 53.2593 21.1091 52.226 21.1091 51.1691C21.1069 50.4643 20.966 49.7668 20.6943 49.1164C20.4226 48.466 20.0254 47.8755 19.5255 47.3787C19.0256 46.8818 18.4327 46.4882 17.7807 46.2205C17.1287 45.9528 16.4303 45.816 15.7255 45.8182Z" fill="#252023"/>
<path d="M19.1945 80.7382H5.4C4.3386 80.7127 3.31983 80.3154 2.52136 79.6156C1.7229 78.9159 1.19542 77.958 1.03091 76.9091L0.687274 75.0437C0.379468 73.3999 0.435307 71.7087 0.850869 70.0889C1.26643 68.469 2.03164 66.9598 3.09273 65.6673C4.00989 64.5806 5.15216 63.7062 6.44051 63.1044C7.72887 62.5026 9.13258 62.1878 10.5545 62.1818H20.88C22.2549 62.1746 23.6152 62.4631 24.8688 63.0278C26.1224 63.5924 27.2398 64.4201 28.1455 65.4546C28.3126 65.61 28.4455 65.7986 28.5354 66.0084C28.6253 66.2182 28.6704 66.4445 28.6677 66.6727C28.665 66.9009 28.6145 67.1261 28.5196 67.3336C28.4247 67.5412 28.2874 67.7266 28.1165 67.878C27.9457 68.0294 27.7451 68.1433 27.5275 68.2125C27.31 68.2817 27.0805 68.3046 26.8536 68.2798C26.6267 68.255 26.4075 68.183 26.2101 68.0684C26.0126 67.9539 25.8414 67.7993 25.7073 67.6146C25.1011 66.9337 24.3574 66.3892 23.5253 66.0168C22.6932 65.6445 21.7916 65.4529 20.88 65.4546H10.5545C9.6094 65.468 8.67898 65.6907 7.83016 66.1066C6.98134 66.5225 6.23523 67.1213 5.64545 67.86C4.90242 68.7895 4.37106 69.8698 4.08844 71.0257C3.80582 72.1816 3.77874 73.3853 4.00909 74.5527L4.35273 76.4182C4.38215 76.7104 4.51272 76.9831 4.72187 77.1893C4.93101 77.3954 5.2056 77.5221 5.49818 77.5473H19.2927C19.7267 77.5473 20.1429 77.7197 20.4498 78.0266C20.7567 78.3334 20.9291 78.7497 20.9291 79.1837C20.9291 79.6176 20.7567 80.0339 20.4498 80.3407C20.1429 80.6476 19.7267 80.82 19.2927 80.82L19.1945 80.7382Z" fill="#252023"/>
<path d="M66.0927 59.7927C64.3885 59.7863 62.7245 59.275 61.3106 58.3235C59.8968 57.372 58.7966 56.0229 58.1489 54.4466C57.5012 52.8703 57.3351 51.1374 57.6715 49.4667C58.008 47.7961 58.8319 46.2626 60.0392 45.0598C61.2465 43.857 62.7831 43.039 64.4551 42.7089C66.127 42.3788 67.8592 42.5514 69.4331 43.2051C71.007 43.8587 72.3519 44.9641 73.298 46.3815C74.2441 47.7989 74.7491 49.4649 74.7491 51.1691C74.7404 53.4592 73.8246 55.6526 72.2022 57.2689C70.5797 58.8853 68.3829 59.7928 66.0927 59.7927ZM66.0927 45.8182C65.0358 45.8247 64.0045 46.144 63.1289 46.7359C62.2533 47.3277 61.5725 48.1657 61.1725 49.144C60.7725 50.1223 60.6712 51.1971 60.8814 52.2329C61.0915 53.2687 61.6037 54.2191 62.3533 54.9642C63.103 55.7093 64.0564 56.2156 65.0935 56.4195C66.1306 56.6233 67.2048 56.5154 68.1806 56.1095C69.1565 55.7036 69.9903 55.0177 70.5768 54.1385C71.1633 53.2593 71.4763 52.226 71.4764 51.1691C71.4677 49.747 70.8967 48.386 69.888 47.3834C68.8793 46.3809 67.5149 45.8182 66.0927 45.8182Z" fill="#252023"/>
<path d="M76.4182 80.7382H62.6236C62.1896 80.7382 61.7734 80.5658 61.4666 80.2589C61.1597 79.952 60.9873 79.5358 60.9873 79.1018C60.9873 78.6678 61.1597 78.2516 61.4666 77.9447C61.7734 77.6379 62.1896 77.4655 62.6236 77.4655H76.4182C76.7108 77.4402 76.9854 77.3136 77.1945 77.1075C77.4036 76.9013 77.5342 76.6286 77.5636 76.3364L77.9073 74.4709C78.1376 73.3035 78.1105 72.0998 77.8279 70.9439C77.5453 69.788 77.0139 68.7076 76.2709 67.7782C75.6811 67.0395 74.935 66.4407 74.0862 66.0248C73.2374 65.6088 72.307 65.3862 71.3618 65.3727H60.9218C60.0022 65.3801 59.0949 65.5856 58.2619 65.9753C57.4288 66.365 56.6896 66.9297 56.0945 67.6309C55.8079 67.956 55.4039 68.1542 54.9714 68.1818C54.5388 68.2094 54.1129 68.0642 53.7873 67.7782C53.6239 67.636 53.4903 67.4629 53.3944 67.2687C53.2984 67.0746 53.2419 66.8633 53.2282 66.6471C53.2145 66.431 53.2439 66.2143 53.3146 66.0096C53.3852 65.8048 53.4959 65.6162 53.64 65.4546C54.5481 64.4188 55.6684 63.5905 56.9248 63.0258C58.1812 62.4612 59.5444 62.1733 60.9218 62.1818H71.2636C72.6933 62.1998 74.1018 62.5298 75.3907 63.1488C76.6795 63.7678 77.8177 64.6608 78.7255 65.7655C79.7865 67.058 80.5518 68.5672 80.9673 70.1871C81.3829 71.8069 81.4387 73.4981 81.1309 75.1418L80.7873 76.9091C80.6228 77.958 80.0953 78.9158 79.2968 79.6156C78.4984 80.3154 77.4796 80.7127 76.4182 80.7382Z" fill="#252023"/>
<path d="M45.6218 29.2582C44.9085 29.2613 44.2056 29.087 43.5764 28.751L41.58 27.7037C41.4228 27.6148 41.2452 27.5681 41.0645 27.5681C40.8839 27.5681 40.7063 27.6148 40.5491 27.7037L38.5527 28.751C37.833 29.1342 37.0199 29.3068 36.2065 29.249C35.3932 29.1911 34.6127 28.905 33.9545 28.4237C33.2917 27.9436 32.7765 27.2877 32.467 26.53C32.1576 25.7724 32.0664 24.9432 32.2036 24.1364L32.5964 21.911C32.627 21.7355 32.6131 21.5552 32.5559 21.3865C32.4987 21.2178 32.4001 21.0662 32.2691 20.9455L30.6327 19.3092C30.0447 18.7425 29.628 18.0218 29.4302 17.2295C29.2324 16.4372 29.2614 15.6052 29.514 14.8287C29.7666 14.0521 30.2326 13.3622 30.8587 12.8379C31.4847 12.3136 32.2457 11.976 33.0545 11.8637L35.28 11.5364C35.4576 11.5103 35.6263 11.4416 35.7716 11.3362C35.917 11.2308 36.0346 11.0917 36.1145 10.931L37.1127 8.90188C37.4834 8.1792 38.0496 7.57516 38.7469 7.15856C39.4441 6.74196 40.2443 6.52954 41.0564 6.54552C41.8715 6.54325 42.6708 6.77079 43.3625 7.20204C44.0543 7.63329 44.6105 8.25079 44.9673 8.9837L45.9655 11.0128C46.0454 11.1735 46.163 11.3126 46.3084 11.418C46.4537 11.5234 46.6224 11.5921 46.8 11.6182L49.0255 11.9455C49.8322 12.0611 50.5905 12.4001 51.2147 12.9241C51.839 13.4481 52.3042 14.1362 52.5578 14.9107C52.8114 15.6852 52.8434 16.5153 52.65 17.307C52.4567 18.0987 52.0457 18.8206 51.4636 19.391L49.8273 21.0273C49.7015 21.1513 49.6076 21.3039 49.5535 21.4719C49.4993 21.64 49.4866 21.8187 49.5164 21.9928L49.9091 24.2182C50.0464 25.0251 49.9551 25.8542 49.6457 26.6118C49.3363 27.3695 48.821 28.0255 48.1582 28.5055C47.4123 29.0155 46.5252 29.2788 45.6218 29.2582ZM41.0727 24.3492C41.7806 24.3481 42.4777 24.5224 43.1018 24.8564L45.0982 25.9037C45.2788 26.0045 45.4849 26.0505 45.6913 26.0359C45.8976 26.0214 46.0953 25.947 46.26 25.8219C46.4264 25.7004 46.5558 25.5351 46.6338 25.3444C46.7118 25.1538 46.7354 24.9452 46.7018 24.7419L46.3091 22.5164C46.1878 21.8188 46.2393 21.102 46.4589 20.4289C46.6786 19.7557 47.0597 19.1465 47.5691 18.6546L49.2055 17.0182C49.3564 16.8774 49.4631 16.6956 49.5125 16.4951C49.5619 16.2946 49.5519 16.084 49.4836 15.8892C49.4224 15.6946 49.3066 15.5218 49.1499 15.3912C48.9933 15.2607 48.8024 15.1779 48.6 15.1528L46.3582 14.8255C45.6603 14.7212 44.9981 14.4494 44.4281 14.0333C43.8582 13.6172 43.3975 13.0693 43.0855 12.4364L42.0873 10.4073C41.9999 10.2209 41.8611 10.0633 41.6871 9.95311C41.5132 9.84294 41.3114 9.78479 41.1055 9.78552C40.8995 9.78479 40.6977 9.84294 40.5238 9.95311C40.3498 10.0633 40.211 10.2209 40.1236 10.4073L39.1255 12.4364C38.8134 13.0693 38.3527 13.6172 37.7828 14.0333C37.2129 14.4494 36.5506 14.7212 35.8527 14.8255L33.6109 15.1528C33.4085 15.1779 33.2176 15.2607 33.061 15.3912C32.9043 15.5218 32.7885 15.6946 32.7273 15.8892C32.659 16.084 32.649 16.2946 32.6984 16.4951C32.7478 16.6956 32.8545 16.8774 33.0055 17.0182L34.6418 18.6546C35.1512 19.1465 35.5323 19.7557 35.752 20.4289C35.9716 21.102 36.0231 21.8188 35.9018 22.5164L35.5255 24.7419C35.4862 24.9437 35.5054 25.1526 35.5808 25.3439C35.6561 25.5352 35.7845 25.701 35.9509 25.8219C36.1181 25.9415 36.3152 26.0125 36.5203 26.0269C36.7253 26.0414 36.9304 25.9987 37.1127 25.9037L39.1091 24.8564C39.7096 24.5162 40.383 24.3254 41.0727 24.3001V24.3492Z" fill="#252023"/>
<path d="M22.4345 26.0509C21.8256 26.0485 21.2246 25.9128 20.6736 25.6535C20.1226 25.3941 19.6351 25.0173 19.2453 24.5495C18.8555 24.0817 18.5727 23.5342 18.417 22.9455C18.2612 22.3568 18.2362 21.7412 18.3436 21.1418L18.7036 19.0963C18.7261 18.9642 18.7171 18.8287 18.6773 18.7007C18.6375 18.5727 18.568 18.456 18.4745 18.36L16.9527 16.8709C16.4019 16.3314 16.0133 15.6484 15.831 14.8992C15.6488 14.1501 15.6803 13.3649 15.9218 12.6327C16.1548 11.9058 16.5834 11.2571 17.1607 10.7577C17.738 10.2584 18.4417 9.92763 19.1945 9.80178L21.2727 9.57269C21.4092 9.55022 21.5384 9.49543 21.6494 9.41287C21.7604 9.33032 21.8501 9.22241 21.9109 9.09814L22.9091 7.21632C23.241 6.52231 23.7633 5.93693 24.4152 5.52843C25.0671 5.11992 25.8216 4.90511 26.5909 4.90905C27.3641 4.90671 28.1224 5.1218 28.7792 5.52978C29.436 5.93775 29.9649 6.52217 30.3055 7.21632L31.2382 9.08178C31.2972 9.21201 31.3882 9.32526 31.5026 9.41106C31.617 9.49687 31.7512 9.55245 31.8927 9.57269L33.9218 9.85087C34.6722 9.97048 35.3749 10.2951 35.9524 10.7889C36.5299 11.2827 36.9598 11.9264 37.1945 12.649C37.2706 12.8555 37.3042 13.0752 37.2934 13.295C37.2826 13.5148 37.2275 13.7301 37.1316 13.9282C37.0356 14.1262 36.9007 14.3028 36.7349 14.4475C36.5691 14.5922 36.3758 14.7019 36.1666 14.7702C35.9574 14.8384 35.7366 14.8638 35.5174 14.8448C35.2982 14.8257 35.0851 14.7627 34.8908 14.6594C34.6965 14.5561 34.525 14.4146 34.3867 14.2435C34.2483 14.0724 34.1458 13.8752 34.0855 13.6636C34.0371 13.5127 33.9468 13.3788 33.825 13.2774C33.7033 13.1759 33.5553 13.1113 33.3982 13.0909L31.3527 12.8127C30.6818 12.7159 30.0453 12.4545 29.5 12.0519C28.9546 11.6493 28.5174 11.118 28.2273 10.5054L27.3109 8.65632C27.2375 8.51168 27.1249 8.39054 26.9861 8.30665C26.8472 8.22277 26.6877 8.1795 26.5255 8.18178C26.3652 8.17868 26.2075 8.22179 26.0711 8.30594C25.9347 8.39009 25.8255 8.51173 25.7564 8.65632L24.8073 10.5381C24.5187 11.1393 24.0876 11.6608 23.5514 12.0572C23.0152 12.4536 22.3902 12.713 21.7309 12.8127L19.7182 13.0909C19.5599 13.1192 19.4124 13.1902 19.2915 13.2962C19.1705 13.4022 19.0809 13.5392 19.032 13.6924C18.9832 13.8456 18.9771 14.0092 19.0144 14.1656C19.0517 14.322 19.1309 14.4653 19.2436 14.58L20.7327 16.0363C21.2054 16.497 21.5606 17.0644 21.7685 17.6908C21.9763 18.3173 22.0308 18.9845 21.9273 19.6363L21.5836 21.6981C21.5493 21.8581 21.5637 22.0246 21.6249 22.1763C21.6862 22.328 21.7915 22.4578 21.9273 22.5491C22.0666 22.6379 22.2284 22.6851 22.3936 22.6851C22.5589 22.6851 22.7207 22.6379 22.86 22.5491L24.6764 21.6C25.2689 21.2777 25.9327 21.1089 26.6073 21.1089C27.2818 21.1089 27.9456 21.2777 28.5382 21.6L30.3709 22.5491C30.7948 22.6562 31.2402 22.6425 31.6567 22.5095C32.0732 22.3765 32.444 22.1294 32.7273 21.7963C32.9775 21.4435 33.3573 21.2042 33.7835 21.1306C34.2097 21.057 34.6478 21.1552 35.0018 21.4036C35.3572 21.6513 35.5999 22.0299 35.6765 22.4563C35.7532 22.8827 35.6577 23.3221 35.4109 23.6781C34.6923 24.6845 33.6554 25.4193 32.4678 25.7637C31.2801 26.1081 30.011 26.0421 28.8655 25.5763L27.0164 24.5454C26.8885 24.4752 26.745 24.4384 26.5991 24.4384C26.4532 24.4384 26.3097 24.4752 26.1818 24.5454L24.3327 25.5109C23.7538 25.8437 23.102 26.0291 22.4345 26.0509Z" fill="#252023"/>
<path d="M72 34.3636H19.6364C19.2024 34.3636 18.7862 34.1912 18.4793 33.8844C18.1724 33.5775 18 33.1613 18 32.7273C18 32.2933 18.1724 31.8771 18.4793 31.5702C18.7862 31.2633 19.2024 31.0909 19.6364 31.0909H72C73.736 31.0909 75.4008 30.4013 76.6283 29.1738C77.8558 27.9463 78.5455 26.2814 78.5455 24.5455V9.81818C78.5455 8.08222 77.8558 6.41736 76.6283 5.18985C75.4008 3.96234 73.736 3.27273 72 3.27273H9.81818C8.08222 3.27273 6.41736 3.96234 5.18985 5.18985C3.96234 6.41736 3.27273 8.08222 3.27273 9.81818V24.5455C3.27273 26.2814 3.96234 27.9463 5.18985 29.1738C6.41736 30.4013 8.08222 31.0909 9.81818 31.0909C10.2522 31.0909 10.6684 31.2633 10.9753 31.5702C11.2821 31.8771 11.4545 32.2933 11.4545 32.7273C11.4545 33.1613 11.2821 33.5775 10.9753 33.8844C10.6684 34.1912 10.2522 34.3636 9.81818 34.3636C7.21424 34.3636 4.71695 33.3292 2.87568 31.488C1.03441 29.6467 0 27.1494 0 24.5455V9.81818C0 7.21424 1.03441 4.71695 2.87568 2.87568C4.71695 1.03441 7.21424 0 9.81818 0H72C74.6039 0 77.1012 1.03441 78.9425 2.87568C80.7838 4.71695 81.8182 7.21424 81.8182 9.81818V24.5455C81.8182 27.1494 80.7838 29.6467 78.9425 31.488C77.1012 33.3292 74.6039 34.3636 72 34.3636Z" fill="#252023"/>
<path d="M59.6455 26.0509C58.9734 26.0475 58.3117 25.8849 57.7145 25.5764L55.8818 24.5455C55.7594 24.4767 55.6213 24.4405 55.4809 24.4405C55.3405 24.4405 55.2024 24.4767 55.08 24.5455L53.2145 25.5273C52.0698 25.9991 50.7989 26.0682 49.6097 25.7234C48.4206 25.3785 47.3838 24.6401 46.6691 23.6291C46.5267 23.4552 46.4216 23.2539 46.3604 23.0375C46.2992 22.8212 46.2833 22.5947 46.3136 22.3719C46.3438 22.1492 46.4197 21.9351 46.5363 21.7429C46.653 21.5508 46.808 21.3848 46.9917 21.2552C47.1754 21.1256 47.3838 21.0352 47.6039 20.9898C47.824 20.9443 48.0512 20.9446 48.2712 20.9908C48.4912 21.037 48.6993 21.128 48.8825 21.2581C49.0658 21.3883 49.2203 21.5548 49.3364 21.7473C49.61 22.1097 49.983 22.3846 50.4102 22.5386C50.8373 22.6926 51.3 22.719 51.7418 22.6146L53.5909 21.6491C54.1848 21.3311 54.8481 21.1648 55.5218 21.1648C56.1955 21.1648 56.8588 21.3311 57.4527 21.6491L59.2691 22.5982C59.4084 22.6871 59.5702 22.7343 59.7355 22.7343C59.9007 22.7343 60.0625 22.6871 60.2018 22.5982C60.336 22.5055 60.44 22.3755 60.5011 22.2242C60.5622 22.073 60.5776 21.9072 60.5455 21.7473L60.1527 19.6364C60.0403 18.9705 60.0918 18.2872 60.3028 17.6457C60.5137 17.0042 60.8779 16.4237 61.3636 15.9546L62.8364 14.5146C62.9493 14.3988 63.0282 14.2543 63.0646 14.0967C63.1011 13.9391 63.0936 13.7746 63.0429 13.621C62.9923 13.4674 62.9005 13.3307 62.7775 13.2257C62.6545 13.1207 62.5051 13.0514 62.3455 13.0255L60.3 12.7473C59.6305 12.6464 58.9958 12.3834 58.4511 11.9813C57.9064 11.5792 57.4682 11.0501 57.1745 10.44L56.2582 8.60731C56.187 8.45962 56.0755 8.33511 55.9365 8.24822C55.7975 8.16133 55.6367 8.11563 55.4727 8.1164C55.3084 8.11362 55.1467 8.1585 55.0074 8.24562C54.868 8.33274 54.7568 8.45836 54.6873 8.60731L53.7709 10.4564C53.4949 11.0665 53.0728 11.5992 52.542 12.0073C52.0111 12.4155 51.3878 12.6865 50.7273 12.7964L48.6 13.0909C48.4409 13.1126 48.2915 13.1797 48.1696 13.2842C48.0477 13.3887 47.9585 13.5261 47.9127 13.68C47.8462 13.8879 47.7388 14.0803 47.5969 14.246C47.4549 14.4116 47.2812 14.5473 47.086 14.6449C46.8909 14.7424 46.6782 14.8 46.4604 14.8142C46.2427 14.8283 46.0243 14.7988 45.8182 14.7273C45.4061 14.5925 45.0643 14.2997 44.868 13.9131C44.6716 13.5265 44.6367 13.0778 44.7709 12.6655C45.0057 11.9428 45.4355 11.2991 46.013 10.8053C46.5906 10.3115 47.2933 9.98693 48.0436 9.86731L50.1055 9.58913C50.2386 9.56306 50.3639 9.5067 50.4717 9.42441C50.5796 9.34212 50.667 9.2361 50.7273 9.11458L51.66 7.23277C52.0114 6.52154 52.5582 5.9252 53.2364 5.51365C53.9145 5.10211 54.696 4.89241 55.4891 4.90913C56.2603 4.90601 57.0167 5.12096 57.6711 5.5292C58.3254 5.93744 58.851 6.52232 59.1873 7.2164L60.12 9.08186C60.1836 9.2088 60.2759 9.31923 60.3894 9.40442C60.503 9.48961 60.6349 9.54725 60.7745 9.57277L62.82 9.85095C63.5871 9.95899 64.3084 10.2801 64.9021 10.7777C65.4958 11.2753 65.9379 11.9295 66.1783 12.6659C66.4186 13.4023 66.4476 14.1914 66.2618 14.9434C66.076 15.6955 65.6829 16.3803 65.1273 16.92L63.6382 18.3764C63.5357 18.4808 63.4587 18.6075 63.4133 18.7466C63.3679 18.8857 63.3552 19.0334 63.3764 19.1782L63.8182 21.2728C63.9257 21.8722 63.9006 22.4878 63.7449 23.0765C63.5891 23.6652 63.3064 24.2127 62.9165 24.6805C62.5267 25.1483 62.0392 25.5251 61.4882 25.7845C60.9373 26.0438 60.3362 26.1795 59.7273 26.1819L59.6455 26.0509Z" fill="#252023"/>
<defs>
<linearGradient id="paint0_linear_4020_3" x1="30.2615" y1="54.8229" x2="37.2503" y2="105.239" gradientUnits="userSpaceOnUse">
<stop stop-color="#FFD13D"/>
<stop offset="0.265625" stop-color="#F29100"/>
<stop offset="0.635417" stop-color="#EB501C"/>
<stop offset="1" stop-color="#E5352A"/>
</linearGradient>
<linearGradient id="paint1_linear_4020_3" x1="34.4183" y1="-7.98887" x2="46.6378" y2="43.7574" gradientUnits="userSpaceOnUse">
<stop stop-color="#FFD13D"/>
<stop offset="0.265625" stop-color="#F29100"/>
<stop offset="0.635417" stop-color="#EB501C"/>
<stop offset="1" stop-color="#E5352A"/>
</linearGradient>
<linearGradient id="paint2_linear_4020_3" x1="20.5001" y1="-8.19628" x2="31.7165" y2="39.0623" gradientUnits="userSpaceOnUse">
<stop stop-color="#FFD13D"/>
<stop offset="0.265625" stop-color="#F29100"/>
<stop offset="0.635417" stop-color="#EB501C"/>
<stop offset="1" stop-color="#E5352A"/>
</linearGradient>
<linearGradient id="paint3_linear_4020_3" x1="49.5226" y1="-8.24228" x2="60.7647" y2="39.1682" gradientUnits="userSpaceOnUse">
<stop stop-color="#FFD13D"/>
<stop offset="0.265625" stop-color="#F29100"/>
<stop offset="0.635417" stop-color="#EB501C"/>
<stop offset="1" stop-color="#E5352A"/>
</linearGradient>
</defs>
</svg>
