<?xml version="1.0" encoding="UTF-8"?>
<svg width="496pt" height="496pt" version="1.1" viewBox="-40 0 496 496" xmlns="http://www.w3.org/2000/svg" xmlns:cc="http://creativecommons.org/ns#" xmlns:dc="http://purl.org/dc/elements/1.1/" xmlns:rdf="http://www.w3.org/1999/02/22-rdf-syntax-ns#">
 <metadata>
  <rdf:RDF>
   <cc:Work rdf:about="">
    <dc:format>image/svg+xml</dc:format>
    <dc:type rdf:resource="http://purl.org/dc/dcmitype/StillImage"/>
    <dc:title/>
   </cc:Work>
  </rdf:RDF>
 </metadata>
 <path d="m80 424h304v40h-304z" fill="#ea8c0c"/>
 <path d="m232 400c-66.168 0-120-53.832-120-120s53.832-120 120-120 120 53.832 120 120-53.832 120-120 120z" fill="#ea8c0c"/>
 <path d="m368 100.69v-68.688h-112.81c-3.7188-18.23-19.879-32-39.191-32s-35.473 13.77-39.191 32h-176.81v416h48v48h368v-347.31zm-16 6.625 36.688 36.688h-36.688zm0-22.625-4.6875-4.6875h-91.312v-32h96zm-336 347.31v-384h160v32h-128v352zm48 48v-384h112v24c0 13.23 10.77 24 24 24s24-10.77 24-24v-72h-16v72c0 4.4062-3.5938 8-8 8s-8-3.5938-8-8v-80c0-13.23 10.77-24 24-24s24 10.77 24 24v104h16v-48h80v64h64v320z"/>
 <path d="m312 328.14c0-17.762-11.93-33.578-29.008-38.473l-26.992-7.7031v-2.1367c9.9688-7.5117 16-19.328 16-31.832v-14.336c0-21.504-16.008-39.727-36.449-41.504-11.199-0.99219-22.344 2.8008-30.574 10.352-8.25 7.5586-12.977 18.312-12.977 29.488v16c0 12.504 6.0312 24.32 16 31.832v2.1367l-26.992 7.7109c-17.078 4.8789-29.008 20.703-29.008 38.465v23.855h160zm-16 7.8555h-128v-7.8555c0-10.656 7.1602-20.152 17.406-23.082l38.594-11.031v-23.07l-3.9766-2.3125c-7.5273-4.3828-12.023-12.105-12.023-20.648v-16c0-6.7031 2.8398-13.16 7.793-17.695 5.0078-4.6016 11.504-6.793 18.383-6.207 12.23 1.0625 21.824 12.285 21.824 25.566v14.336c0 8.543-4.4961 16.266-12.023 20.648l-3.9766 2.3125v23.07l38.594 11.023c10.246 2.9375 17.406 12.434 17.406 23.09z"/>
 <path d="m80 416h304v16h-304z"/>
 <path d="m80 448h272v16h-272z"/>
 <path d="m368 448h16v16h-16z"/>
</svg>
