<?xml version="1.0" encoding="UTF-8"?>
<svg width="512" height="512" enable-background="new 0 0 64 64" version="1.1" viewBox="0 0 64 64" xmlns="http://www.w3.org/2000/svg" xmlns:cc="http://creativecommons.org/ns#" xmlns:dc="http://purl.org/dc/elements/1.1/" xmlns:rdf="http://www.w3.org/1999/02/22-rdf-syntax-ns#">
 <metadata>
  <rdf:RDF>
   <cc:Work rdf:about="">
    <dc:format>image/svg+xml</dc:format>
    <dc:type rdf:resource="http://purl.org/dc/dcmitype/StillImage"/>
    <dc:title/>
   </cc:Work>
  </rdf:RDF>
 </metadata>
 <path d="m50.385 13.359c-1.361-3.863-4.652-6.359-8.385-6.359s-7.024 2.496-8.385 6.359l-1.887-.664c1.622-4.603 5.75-7.695 10.272-7.695s8.65 3.092 10.271 7.695z"/>
 <g fill="#ea8c0c">
  <path d="m35 17c0-1.96.808-3.729 2.106-5h-4.106c-1.654 0-3 1.346-3 3v1c0 1.654 1.346 3 3 3h2.294c-.189-.634-.294-1.305-.294-2z"/>
  <path d="m51 12h-4.106c1.298 1.271 2.106 3.04 2.106 5 0 .695-.105 1.366-.294 2h2.294c1.654 0 3-1.346 3-3v-1c0-1.654-1.346-3-3-3z"/>
  <path d="m25 41v9l3.986 3.189c.641.513 1.014 1.289 1.014 2.109 0 1.492-1.21 2.702-2.702 2.702h-.398c-.324 0-.641-.064-.941-.175l.162 1.175h22.879v-18z"/>
 </g>
 <path d="m55 49c-2.206 0-4-1.794-4-4s1.794-4 4-4 4 1.794 4 4-1.794 4-4 4zm0-6c-1.103 0-2 .897-2 2s.897 2 2 2 2-.897 2-2-.897-2-2-2z"/>
 <path d="m59 59h-8v-8h8zm-6-2h4v-4h-4z"/>
 <path d="m21 1v4h-14c-1.654 0-3 1.346-3 3v12c0 1.654 1.346 3 3 3h2.764l9.236 4.618v-4.618h2v22.52l-2.739-2.191c-.75-.6-1.579-1.087-2.454-1.462 1.919-1.25 3.193-3.411 3.193-5.867 0-3.86-3.14-7-7-7s-7 3.14-7 7c0 2.338 1.156 4.407 2.923 5.679-4.036 1.507-6.923 5.39-6.923 9.945v11.376h18v-9l2 1.5v7.5h42v-62zm-14 6h18c.551 0 1 .449 1 1v6h-4.535l-1.399 2.099-4-7-3.843 5.765-1.546-3.864h-4.677v-3c0-.551.449-1 1-1zm10 14v3.382l-6.764-3.382h-3.236c-.551 0-1-.449-1-1v-7h3.323l2.455 6.136 4.157-6.235 4 7 2.6-3.901h3.465v4c0 .551-.449 1-1 1zm-10 15c0-2.757 2.243-5 5-5s5 2.243 5 5-2.243 5-5 5-5-2.243-5-5zm7.6 12.2-1.2 1.6 3.6 2.7v8.5h-14v-9.376c0-4.755 3.869-8.624 8.624-8.624 1.951 0 3.864.671 5.388 1.89l11.35 9.08c.405.324.638.809.638 1.328 0 .939-.763 1.702-1.702 1.702h-.398c-.366 0-.728-.121-1.021-.34zm46.4 12.8h-38v-4l1.679 1.259c.636.478 1.425.741 2.221.741h.398c2.041 0 3.702-1.661 3.702-3.702 0-1.13-.506-2.184-1.389-2.89l-4.26-3.408h4.972l2.455 6.136 4.099-6.148 4.123 8.248 2.618-5.236h5.382v-2h-6.618l-1.382 2.764-3.876-7.752-3.901 5.852-1.546-3.864h-6.677v1.72l-2-1.6v-8.12h38zm-11-28v4h-6.277l5.573-9.753c3.18 2.164 5.343 5.703 5.654 9.753h-2.95v-4zm-5.429-1.515-1.324-2.318 3.322-3.322c.336.127.664.266.985.419zm-1.151 2.015-1.42 2.485-1.42-2.485 1.42-2.484zm-3.781-8.275c.767-.141 1.554-.225 2.361-.225s1.594.084 2.361.225l-2.361 2.361zm2.361-2.225c-3.309 0-6-2.691-6-6s2.691-6 6-6 6 2.691 6 6-2.691 6-6 6zm-1.247 6.167-1.324 2.318-2.983-5.221c.322-.153.65-.292.985-.419zm-.476 7.833h-6.277v-4h-2v4h-2.949c.31-4.05 2.474-7.588 5.654-9.753zm20.723 0h-4.051c-.418-6.293-4.719-11.54-10.534-13.335 2.158-1.434 3.585-3.885 3.585-6.665 0-4.411-3.589-8-8-8s-8 3.589-8 8c0 2.78 1.427 5.231 3.585 6.665-5.816 1.795-10.116 7.042-10.534 13.335h-4.051v-14h2c1.654 0 3-1.346 3-3v-12c0-1.654-1.346-3-3-3h-2v-2h38z"/>
 <path d="m57 5h2v2h-2z"/>
 <path d="m57 9h2v2h-2z"/>
 <path d="m57 13h2v2h-2z"/>
</svg>
