<svg width="101" height="90" viewBox="0 0 101 90" fill="none" xmlns="http://www.w3.org/2000/svg">
<path d="M92.2247 44.3759V75.0242H5.75285V19.826C5.75285 16.5423 8.41112 13.7277 11.8512 13.7277H37.8084" stroke="#101F2D" stroke-width="3" stroke-miterlimit="10" stroke-linecap="round" stroke-linejoin="round"/>
<path d="M95.9775 75.0242H2V80.1843C2 84.2499 5.28374 87.69 9.50569 87.69H88.6282C92.6938 87.69 96.1339 84.4063 96.1339 80.1843V75.0242H95.9775Z" stroke="#101F2D" stroke-width="3" stroke-miterlimit="10" stroke-linecap="round" stroke-linejoin="round"/>
<path d="M59.2309 75.0242H38.7466V78.777C38.7466 80.1843 39.8412 81.2789 41.2485 81.2789H56.729C58.1363 81.2789 59.2309 80.1843 59.2309 78.777V75.0242Z" fill="url(#paint0_linear_3988_3346)" stroke="#101F2D" stroke-width="3" stroke-miterlimit="10" stroke-linecap="round" stroke-linejoin="round"/>
<path d="M37.652 43.9068H93.632C96.603 43.9068 98.9485 41.5613 98.9485 38.5903V7.31653C98.9485 4.34553 96.603 2 93.632 2H43.1249C40.1539 2 37.8084 4.34553 37.8084 7.31653V25.1426" stroke="#101F2D" stroke-width="3" stroke-miterlimit="10" stroke-linecap="round" stroke-linejoin="round"/>
<path d="M32.961 53.9144L34.0556 61.5764L30.7718 65.642L27.6444 61.5764L28.5827 53.9144" fill="url(#paint1_linear_3988_3346)"/>
<path d="M32.961 53.9144L34.0556 61.5764L30.7718 65.642L27.6444 61.5764L28.5827 53.9144" stroke="#101F2D" stroke-width="3" stroke-miterlimit="10" stroke-linecap="round" stroke-linejoin="round"/>
<path d="M40.7794 74.7114V62.9837L48.9106 68.1439C50.0052 68.7694 51.0997 69.0821 52.3507 69.0821H57.8236C59.7 69.0821 61.1073 67.6748 61.1073 65.7984C61.1073 63.922 59.7 62.3583 57.8236 62.3583H52.3507L42.6558 55.0089C41.4049 54.0707 39.9976 53.6016 38.5902 53.6016H21.5461C18.5751 53.6016 16.0732 56.1035 16.0732 59.0745V74.7114H40.7794Z" stroke="#101F2D" stroke-width="3" stroke-miterlimit="10" stroke-linecap="round" stroke-linejoin="round"/>
<path d="M23.5789 64.5475L23.4225 74.7114" stroke="#101F2D" stroke-width="3" stroke-miterlimit="10" stroke-linecap="round" stroke-linejoin="round"/>
<path d="M58.1363 62.0455L67.6748 40.3103" stroke="#101F2D" stroke-width="3" stroke-miterlimit="10" stroke-linecap="round" stroke-linejoin="round"/>
<path d="M38.903 39.8412C38.903 44.3759 35.1501 48.1287 30.6154 48.1287C26.0808 48.1287 22.3279 44.3759 22.3279 39.8412" stroke="#101F2D" stroke-width="3" stroke-miterlimit="10" stroke-linecap="round" stroke-linejoin="round"/>
<path d="M20.6079 28.8954V37.8084C27.1753 39.0593 33.8992 39.0593 40.623 37.8084V28.8954L30.3027 32.8046L20.6079 28.8954Z" stroke="#101F2D" stroke-width="3" stroke-miterlimit="10" stroke-linecap="round" stroke-linejoin="round"/>
<path d="M30.3027 32.8046L46.5651 26.3935L30.3027 20.1388L14.1967 26.3935L30.3027 32.8046Z" fill="url(#paint2_linear_3988_3346)" stroke="#101F2D" stroke-width="3" stroke-miterlimit="10" stroke-linecap="round" stroke-linejoin="round"/>
<path d="M14.1967 26.3935V35.1501" stroke="#101F2D" stroke-width="3" stroke-miterlimit="10" stroke-linecap="round" stroke-linejoin="round"/>
<path d="M52.9762 29.2081H64.7038V34.5246H52.9762V29.2081Z" stroke="#101F2D" stroke-width="3" stroke-miterlimit="10" stroke-linecap="round" stroke-linejoin="round"/>
<path d="M64.7038 23.7352H76.4315V34.5246H64.7038V23.7352Z" fill="url(#paint3_linear_3988_3346)" stroke="#101F2D" stroke-width="3" stroke-miterlimit="10" stroke-linecap="round" stroke-linejoin="round"/>
<path d="M76.4315 17.6367H88.1591V34.5245H76.4315V17.6367Z" stroke="#101F2D" stroke-width="3" stroke-miterlimit="10" stroke-linecap="round" stroke-linejoin="round"/>
<path d="M61.5764 17.9495L70.1767 11.0693" stroke="#101F2D" stroke-width="3" stroke-miterlimit="10" stroke-linecap="round" stroke-linejoin="round"/>
<path d="M55.4781 22.7969L57.0418 21.7023" stroke="#101F2D" stroke-width="3" stroke-miterlimit="10" stroke-linecap="round" stroke-linejoin="round"/>
<path d="M66.1111 9.34918H71.8968V14.6657" stroke="#101F2D" stroke-width="3" stroke-miterlimit="10" stroke-linecap="round" stroke-linejoin="round"/>
<path d="M76.7442 68.1439L68.613 64.5474V54.8526L76.7442 58.4491V68.1439Z" fill="url(#paint4_linear_3988_3346)" stroke="#101F2D" stroke-width="3" stroke-miterlimit="10" stroke-linecap="round" stroke-linejoin="round"/>
<path d="M84.719 64.5474L76.7442 68.1439V58.4491L84.719 54.8526V64.5474Z" fill="url(#paint5_linear_3988_3346)" stroke="#101F2D" stroke-width="3" stroke-miterlimit="10" stroke-linecap="round" stroke-linejoin="round"/>
<path d="M76.7442 51.4125L68.613 54.8526L76.7442 58.4491L84.719 54.8526L76.7442 51.4125Z" fill="url(#paint6_linear_3988_3346)" stroke="#101F2D" stroke-width="3" stroke-miterlimit="10" stroke-linecap="round" stroke-linejoin="round"/>
<defs>
<linearGradient id="paint0_linear_3988_3346" x1="42.2604" y1="69.8423" x2="43.5623" y2="87.2662" gradientUnits="userSpaceOnUse">
<stop stop-color="#FFD13D"/>
<stop offset="0.265625" stop-color="#F29100"/>
<stop offset="0.635417" stop-color="#EB501C"/>
<stop offset="1" stop-color="#E5352A"/>
</linearGradient>
<linearGradient id="paint1_linear_3988_3346" x1="28.7442" y1="44.1984" x2="40.995" y2="71.5669" gradientUnits="userSpaceOnUse">
<stop stop-color="#FFD13D"/>
<stop offset="0.265625" stop-color="#F29100"/>
<stop offset="0.635417" stop-color="#EB501C"/>
<stop offset="1" stop-color="#E5352A"/>
</linearGradient>
<linearGradient id="paint2_linear_3988_3346" x1="19.749" y1="9.64557" x2="23.1155" y2="44.8036" gradientUnits="userSpaceOnUse">
<stop stop-color="#FFD13D"/>
<stop offset="0.265625" stop-color="#F29100"/>
<stop offset="0.635417" stop-color="#EB501C"/>
<stop offset="1" stop-color="#E5352A"/>
</linearGradient>
<linearGradient id="paint3_linear_3988_3346" x1="66.7155" y1="14.7965" x2="73.1915" y2="43.5626" gradientUnits="userSpaceOnUse">
<stop stop-color="#FFD13D"/>
<stop offset="0.265625" stop-color="#F29100"/>
<stop offset="0.635417" stop-color="#EB501C"/>
<stop offset="1" stop-color="#E5352A"/>
</linearGradient>
<linearGradient id="paint4_linear_3988_3346" x1="70.0078" y1="43.8412" x2="82.8464" y2="75.9384" gradientUnits="userSpaceOnUse">
<stop stop-color="#FFD13D"/>
<stop offset="0.265625" stop-color="#F29100"/>
<stop offset="0.635417" stop-color="#EB501C"/>
<stop offset="1" stop-color="#E5352A"/>
</linearGradient>
<linearGradient id="paint5_linear_3988_3346" x1="78.1121" y1="43.8412" x2="91.1314" y2="75.764" gradientUnits="userSpaceOnUse">
<stop stop-color="#FFD13D"/>
<stop offset="0.265625" stop-color="#F29100"/>
<stop offset="0.635417" stop-color="#EB501C"/>
<stop offset="1" stop-color="#E5352A"/>
</linearGradient>
<linearGradient id="paint6_linear_3988_3346" x1="71.3758" y1="45.5829" x2="73.4592" y2="65.0715" gradientUnits="userSpaceOnUse">
<stop stop-color="#FFD13D"/>
<stop offset="0.265625" stop-color="#F29100"/>
<stop offset="0.635417" stop-color="#EB501C"/>
<stop offset="1" stop-color="#E5352A"/>
</linearGradient>
</defs>
</svg>
